<?xml version="1.0" standalone="no"?>
<!DOCTYPE svg PUBLIC "-//W3C//DTD SVG 20010904//EN"
 "http://www.w3.org/TR/2001/REC-SVG-20010904/DTD/svg10.dtd">
<svg version="1.0" xmlns="http://www.w3.org/2000/svg"
 width="5000.000000pt" height="5000.000000pt" viewBox="0 0 5000.000000 5000.000000"
 preserveAspectRatio="xMidYMid meet">

<g transform="translate(0.000000,5000.000000) scale(0.100000,-0.100000)"
fill="#000000" stroke="none">
<path d="M24326 43929 c-48 -28 -136 -38 -341 -39 -148 0 -228 -5 -270 -15
-35 -8 -111 -14 -183 -15 -72 0 -132 -5 -144 -11 -41 -22 -134 -38 -218 -39
-48 0 -91 -5 -97 -11 -15 -15 -121 -38 -178 -39 -28 0 -56 -5 -62 -11 -16 -16
-121 -38 -182 -39 -34 0 -65 -7 -85 -19 -17 -10 -61 -24 -97 -31 l-66 -13 31
-27 c17 -14 45 -32 62 -39 18 -7 49 -28 69 -47 21 -19 45 -34 55 -34 21 0 108
-57 123 -82 7 -10 19 -18 28 -18 25 0 99 -54 152 -109 26 -28 53 -51 60 -51
25 0 102 -59 137 -104 23 -30 47 -49 71 -56 41 -11 96 -52 134 -97 15 -18 35
-33 44 -33 26 0 88 -44 142 -98 67 -69 119 -111 164 -134 22 -12 77 -57 122
-102 46 -45 108 -94 138 -110 32 -17 73 -50 97 -78 46 -55 223 -208 240 -208
9 0 45 -27 117 -88 13 -11 13 -12 1 -7 -8 4 10 -16 40 -43 30 -28 60 -50 65
-49 6 1 9 -4 7 -12 -2 -11 0 -12 11 -3 11 10 17 9 27 -2 6 -9 9 -19 6 -24 -7
-12 19 -47 36 -47 7 0 13 -6 13 -14 0 -8 8 -15 18 -17 9 -1 15 2 11 7 -3 5
-11 6 -17 2 -7 -4 -6 0 2 10 10 13 10 17 1 17 -9 0 -10 3 -1 13 6 8 7 18 3 23
-4 4 1 2 11 -5 10 -8 14 -17 10 -20 -31 -23 11 -26 358 -23 249 2 369 -1 369
-8 0 -6 44 -10 120 -10 73 0 120 -4 120 -10 0 -6 31 -10 73 -10 125 0 487 -23
487 -32 0 -4 36 -8 80 -8 47 0 80 -4 80 -10 0 -5 18 -10 40 -10 22 0 40 -4 40
-10 0 -6 33 -10 80 -10 47 0 80 -4 80 -10 0 -6 33 -10 80 -10 47 0 80 -4 80
-10 0 -5 18 -10 40 -10 22 0 40 -4 40 -10 0 -5 18 -10 40 -10 22 0 40 -4 40
-9 0 -5 36 -12 80 -16 44 -4 80 -11 80 -16 0 -5 18 -9 40 -9 22 0 40 -4 40
-10 0 -5 19 -10 43 -10 32 0 39 -3 27 -11 -11 -8 -12 -12 -2 -16 14 -6 16 -43
2 -43 -5 0 -10 9 -10 20 0 16 -7 20 -30 20 -23 0 -30 -4 -30 -20 0 -16 7 -20
30 -20 17 0 30 -4 30 -10 0 -6 29 -10 67 -10 63 0 65 1 50 18 -10 10 -17 29
-17 42 0 22 1 23 20 5 19 -17 21 -17 40 0 19 18 20 17 20 -3 0 -19 6 -22 40
-22 22 0 40 -4 40 -9 0 -5 35 -12 77 -16 52 -5 85 -13 102 -26 13 -10 32 -19
42 -19 11 0 19 -7 19 -15 0 -11 11 -15 40 -15 22 0 40 -4 40 -10 0 -6 35 -10
86 -10 71 0 90 -4 111 -20 18 -14 41 -20 74 -20 27 0 49 -4 49 -10 0 -5 18
-10 40 -10 22 0 40 -4 40 -10 0 -5 24 -10 53 -10 50 0 107 -17 107 -31 0 -4
36 -10 80 -14 58 -5 80 -11 80 -21 0 -10 12 -14 40 -14 33 0 40 -4 40 -19 0
-16 11 -20 80 -26 58 -5 80 -11 80 -21 0 -10 12 -14 40 -14 33 0 40 -3 40 -20
0 -18 7 -20 80 -20 73 0 80 -2 80 -20 0 -17 7 -20 40 -20 22 0 40 -4 40 -10 0
-5 18 -10 40 -10 22 0 40 -4 40 -10 0 -5 18 -10 40 -10 34 0 40 -3 40 -21 0
-19 5 -21 44 -18 32 3 42 1 39 -8 -4 -9 7 -13 35 -13 22 0 42 4 44 8 2 5 28
11 58 15 53 5 54 5 20 -7 -48 -18 -47 -42 3 -38 31 2 37 0 37 -16 0 -20 33
-32 91 -32 19 0 29 -5 29 -15 0 -11 11 -15 40 -15 33 0 40 -3 40 -20 0 -17 7
-20 40 -20 22 0 40 -4 40 -9 0 -5 18 -11 40 -15 22 -3 40 -10 40 -15 0 -5 18
-11 40 -15 22 -3 40 -10 40 -15 0 -10 51 -23 93 -25 16 -1 33 -9 38 -18 7 -13
23 -18 59 -18 47 0 50 -2 50 -25 0 -22 4 -25 40 -25 22 0 40 5 40 10 0 6 10
10 23 9 l22 0 -22 -11 c-31 -15 -29 -24 6 -31 16 -3 36 -13 44 -22 9 -8 29
-15 46 -15 36 0 80 -16 95 -34 6 -8 31 -16 56 -19 24 -3 46 -11 48 -16 2 -6
12 -11 22 -11 10 0 22 -4 25 -10 3 -5 19 -10 34 -10 16 0 34 -7 41 -15 7 -8
19 -15 26 -15 8 0 14 -7 14 -15 0 -10 10 -15 34 -15 44 0 93 -18 100 -36 4
-10 13 -13 24 -10 11 4 29 -2 45 -14 27 -21 88 -50 107 -50 5 0 10 7 10 15 0
8 7 15 16 15 10 0 14 -6 11 -14 -7 -17 11 -36 35 -36 10 0 18 -7 18 -15 0 -8
7 -15 15 -15 8 0 25 -6 36 -12 17 -10 23 -10 26 0 3 6 12 12 20 12 9 0 13 -6
10 -14 -7 -17 11 -36 35 -36 10 0 18 -7 18 -15 0 -8 9 -15 19 -15 11 0 23 -4
26 -10 3 -5 19 -10 34 -10 16 0 34 -7 41 -15 7 -8 19 -15 26 -15 8 0 14 -7 14
-15 0 -8 9 -15 19 -15 11 0 23 -4 26 -10 3 -5 19 -10 34 -10 16 0 34 -7 41
-15 7 -8 19 -15 26 -15 8 0 14 -7 14 -15 0 -11 11 -15 40 -15 22 0 40 -3 40
-8 0 -7 30 -25 63 -38 9 -3 17 -11 17 -18 1 -15 66 -47 83 -40 7 2 24 -4 38
-15 53 -44 85 -63 124 -71 18 -3 34 -15 40 -28 5 -12 18 -22 29 -22 29 0 126
-51 126 -66 0 -8 9 -14 20 -14 11 0 20 -3 20 -8 0 -7 30 -25 63 -38 9 -3 17
-13 17 -20 0 -8 7 -14 16 -14 8 0 22 -6 29 -12 32 -29 43 -36 63 -42 12 -4 22
-12 22 -17 0 -5 7 -9 15 -9 8 0 15 -3 15 -8 0 -7 30 -25 63 -38 9 -3 17 -11
17 -18 0 -6 18 -20 40 -30 22 -11 40 -25 40 -33 0 -7 9 -13 20 -13 11 0 20 -4
20 -10 0 -5 9 -10 20 -10 11 0 20 -6 20 -13 0 -12 24 -28 63 -43 9 -3 17 -11
17 -17 0 -12 79 -87 92 -87 13 0 68 -56 68 -69 0 -6 8 -11 19 -11 10 0 21 -9
24 -21 4 -15 12 -20 29 -17 17 2 24 -2 26 -19 2 -13 9 -23 15 -23 7 0 17 -10
22 -22 11 -24 60 -56 88 -57 11 -1 17 -9 17 -24 0 -27 32 -57 60 -57 14 0 20
-7 20 -23 0 -27 32 -57 60 -57 15 0 20 -7 20 -25 0 -13 6 -28 14 -32 8 -4 16
-19 18 -32 3 -23 39 -53 81 -67 9 -4 17 -16 17 -28 0 -24 29 -71 30 -48 0 21
20 3 20 -19 0 -10 -4 -19 -10 -19 -15 0 -12 -19 4 -36 17 -16 36 -19 36 -4 0
6 7 10 15 10 8 0 15 -6 15 -14 0 -28 42 -86 61 -86 14 0 19 -7 19 -27 0 -14 7
-34 15 -43 14 -15 14 -18 0 -30 -12 -10 -15 -10 -15 4 0 13 -11 16 -61 16
l-60 0 20 -29 c12 -16 21 -34 21 -40 0 -6 6 -11 14 -11 7 0 16 -8 20 -17 7
-24 27 -54 47 -73 9 -8 24 -31 34 -50 10 -19 24 -39 31 -43 8 -4 14 -19 14
-32 0 -15 6 -25 14 -25 7 0 16 -8 20 -17 5 -18 26 -53 36 -63 7 -7 29 -43 37
-60 4 -8 13 -21 20 -28 7 -7 13 -22 13 -31 0 -10 8 -29 19 -42 10 -13 29 -46
41 -74 12 -27 25 -52 29 -55 9 -7 111 -216 111 -228 0 -5 7 -12 15 -16 8 -3
15 -16 15 -30 0 -14 6 -31 14 -39 8 -8 22 -37 32 -66 9 -28 20 -51 25 -51 5 0
9 -9 9 -21 0 -11 6 -33 14 -47 8 -15 20 -42 28 -59 7 -18 16 -33 20 -33 5 0 8
-18 8 -40 0 -33 3 -40 20 -40 22 0 25 -19 20 -162 l-2 -78 47 0 48 0 -7 -42
c-4 -31 -3 -39 4 -28 9 13 11 13 20 0 6 -8 8 -26 5 -40 -3 -14 -8 -49 -11 -77
-4 -29 -10 -53 -14 -53 -4 0 -12 19 -17 43 l-11 42 -1 -42 c0 -24 4 -43 9 -43
6 0 10 -18 10 -40 0 -22 5 -40 10 -40 6 0 10 18 10 40 0 30 4 40 16 40 15 0
16 8 11 60 -6 55 -5 60 13 60 13 0 20 -7 20 -20 0 -16 7 -20 30 -20 28 0 30
-2 30 -40 0 -22 5 -40 10 -40 6 0 10 -33 10 -80 0 -83 2 -87 48 -81 10 2 13
-10 11 -45 -2 -31 1 -49 9 -52 7 -2 12 -20 12 -39 0 -27 3 -34 15 -29 12 4 15
-3 15 -34 0 -36 3 -40 25 -40 25 0 25 -1 25 -80 0 -47 4 -80 10 -80 6 0 10
-18 10 -40 0 -22 -4 -40 -10 -40 -6 0 -10 -33 -10 -80 0 -47 -4 -80 -10 -80
-5 0 -10 18 -10 40 0 34 -3 40 -21 40 -19 0 -20 -4 -15 -35 6 -30 28 -83 67
-157 5 -10 9 -28 9 -41 0 -21 8 -34 50 -84 5 -7 10 -28 10 -48 0 -19 5 -35 10
-35 6 0 10 -6 10 -14 0 -7 7 -19 15 -26 8 -7 15 -25 15 -41 0 -15 6 -34 14
-42 8 -7 21 -34 29 -58 9 -25 27 -67 41 -93 14 -27 26 -55 26 -62 0 -7 11 -26
25 -42 l24 -29 -24 5 c-18 3 -25 0 -25 -11 0 -10 6 -13 19 -10 16 4 22 -3 30
-34 6 -21 11 -53 11 -70 0 -18 5 -33 10 -33 6 0 10 9 10 21 0 11 5 17 10 14 6
-3 10 -19 10 -34 0 -16 7 -34 15 -41 8 -7 17 -27 21 -46 3 -19 9 -34 13 -34 3
0 12 -19 19 -42 7 -23 21 -48 30 -55 14 -10 15 -14 3 -22 -18 -12 -7 -41 19
-48 11 -3 20 -12 20 -19 0 -8 10 -14 25 -14 14 0 25 -4 25 -10 0 -5 -7 -10
-15 -10 -16 0 -20 -21 -7 -34 4 -4 7 -20 7 -34 0 -18 7 -30 22 -37 26 -11 35
-41 27 -87 -6 -30 -5 -32 8 -14 12 15 17 16 23 6 5 -9 4 -15 -3 -18 -7 -2 -12
-15 -12 -29 0 -14 -10 -33 -21 -42 -18 -14 -20 -21 -11 -37 11 -18 11 -18 12
-1 0 26 24 47 54 47 18 0 26 -5 26 -18 0 -10 7 -27 15 -38 19 -25 8 -93 -18
-117 -16 -13 -18 -20 -9 -29 9 -9 12 -9 12 1 0 32 79 60 81 29 3 -48 -4 -135
-12 -144 -5 -6 -7 -19 -3 -27 5 -15 7 -15 21 -1 12 11 14 28 10 65 -4 28 -2
49 3 49 6 0 10 -3 11 -7 0 -5 2 -18 3 -29 1 -12 12 -34 24 -49 l22 -28 0 36
c0 40 -18 88 -37 100 -18 11 -16 27 2 27 11 0 15 11 15 40 0 22 -4 40 -10 40
-5 0 -10 7 -10 15 0 22 30 6 41 -23 5 -14 12 -22 16 -19 3 4 14 -3 24 -15 25
-28 24 -36 -1 -13 -12 11 -20 13 -20 6 0 -7 -4 -9 -10 -6 -5 3 -10 0 -10 -9 0
-8 -6 -16 -12 -19 -10 -4 -10 -7 0 -18 10 -11 12 -10 12 4 0 13 9 17 40 17
l40 0 2 -42 c1 -24 1 -57 0 -74 -2 -22 3 -34 14 -38 9 -4 19 -4 22 -1 3 3 0 5
-6 5 -7 0 -12 12 -12 27 l0 26 20 -23 c12 -14 18 -31 14 -42 -3 -12 0 -18 9
-18 18 0 43 -53 28 -58 -6 -2 -11 -28 -11 -58 0 -30 -4 -54 -9 -54 -5 0 -13
-25 -16 -55 -5 -37 -12 -55 -21 -55 -9 0 -14 11 -14 30 0 25 -4 30 -25 30 -20
0 -25 -5 -25 -24 0 -14 5 -28 10 -31 6 -4 8 -15 5 -25 -3 -10 -1 -21 5 -25 6
-4 10 4 10 19 0 14 5 26 10 26 6 0 10 -4 10 -10 0 -5 7 -10 15 -10 8 0 15 5
15 10 0 6 7 10 15 10 11 0 15 12 15 50 0 43 3 50 20 50 13 0 20 -7 20 -20 0
-13 7 -20 20 -20 17 0 20 -7 20 -40 0 -22 5 -40 10 -40 6 0 10 7 10 15 0 25
20 17 31 -12 6 -16 15 -36 20 -45 12 -24 11 -78 -1 -78 -5 0 -10 -9 -10 -20 0
-11 5 -20 10 -20 6 0 10 -7 10 -16 0 -8 -4 -13 -8 -10 -5 3 -6 -9 -3 -27 3
-19 6 -25 9 -14 2 9 8 17 13 17 5 0 9 11 9 25 0 14 5 25 10 25 6 0 10 -11 10
-25 0 -14 -4 -25 -10 -25 -5 0 -10 -7 -10 -15 0 -16 15 -21 23 -7 2 4 2 1 0
-6 -1 -8 -3 -20 -3 -28 0 -8 -9 -14 -20 -14 -13 0 -20 -7 -20 -20 0 -13 7 -20
20 -20 13 0 20 7 20 20 0 24 38 28 46 5 5 -11 10 -13 19 -5 6 5 15 7 18 3 13
-12 7 -23 -12 -23 -11 0 -21 -9 -25 -22 -10 -37 -7 -88 5 -88 6 0 9 6 6 14 -3
8 0 16 7 19 7 3 18 -12 28 -39 8 -24 12 -44 8 -44 -4 0 -10 10 -13 22 -4 12
-9 19 -12 16 -8 -8 14 -51 31 -61 8 -4 14 -15 14 -24 0 -26 44 -113 58 -113
10 0 10 5 1 21 -9 17 -8 20 3 17 7 -3 14 -18 16 -34 5 -50 44 -115 79 -132 34
-16 35 -32 2 -32 -25 0 -24 -16 1 -37 21 -19 27 -43 9 -43 -5 0 -7 -5 -4 -11
4 -5 12 -8 18 -6 19 6 52 -37 53 -71 1 -18 10 -41 20 -52 42 -42 43 -44 61
-147 3 -18 10 -33 15 -33 13 0 68 -56 68 -69 0 -6 -7 -11 -15 -11 -8 0 -15 -4
-15 -9 0 -5 7 -11 15 -15 8 -3 15 -17 15 -31 0 -14 5 -25 10 -25 24 0 53 -46
63 -101 7 -32 15 -59 19 -59 28 0 68 -74 68 -125 0 -19 5 -35 10 -35 19 0 50
-40 62 -80 9 -27 19 -40 30 -40 13 0 18 -8 18 -25 0 -19 -5 -25 -22 -25 -21 0
-21 -1 -3 -13 10 -8 15 -19 11 -25 -5 -8 -2 -10 8 -6 9 3 16 1 16 -5 0 -6 -7
-11 -15 -11 -8 0 -15 -4 -15 -10 0 -6 10 -5 25 2 29 13 30 16 10 45 -13 19
-13 22 1 27 9 4 12 2 8 -5 -4 -7 1 -10 12 -7 11 2 21 15 25 36 4 18 19 50 34
72 15 22 25 46 22 54 -3 8 0 17 8 19 17 7 71 122 86 184 6 26 22 66 34 88 13
23 31 70 39 105 9 36 29 94 45 130 44 98 68 161 76 200 4 19 15 51 25 70 10
19 21 54 25 77 4 24 18 59 31 79 39 56 71 126 78 169 4 21 14 52 22 67 8 15
20 55 28 88 8 34 21 72 30 84 8 13 18 41 21 62 4 21 18 58 31 82 13 24 26 60
30 80 4 20 14 51 22 67 9 17 21 53 28 80 13 49 45 151 66 210 5 17 14 53 18
80 14 89 58 254 74 277 9 12 16 35 16 51 0 36 28 149 41 161 5 6 9 24 9 40 1
42 26 146 39 159 6 6 11 24 11 40 0 36 28 149 41 161 5 6 9 23 9 39 0 40 28
147 46 174 8 12 14 43 14 69 0 50 26 163 41 178 5 6 9 37 9 69 0 61 24 174 41
191 5 6 9 32 9 59 0 57 25 162 46 191 10 15 14 51 14 124 0 100 20 215 41 236
5 6 9 68 9 139 0 125 17 234 42 264 5 7 8 154 7 382 -1 330 0 378 17 440 17
67 17 74 1 143 -14 61 -17 126 -17 384 0 176 -4 314 -9 320 -21 21 -41 136
-41 231 0 54 -4 103 -9 109 -16 16 -41 129 -41 185 0 53 -1 54 -69 120 -37 36
-81 69 -96 73 -46 12 -83 42 -211 173 -66 67 -126 123 -133 123 -25 0 -127 80
-166 129 -28 37 -58 60 -105 83 -46 23 -88 56 -142 112 -43 43 -78 83 -78 88
0 4 -7 8 -16 8 -33 0 -90 36 -145 91 -31 31 -68 60 -80 64 -39 13 -95 54 -127
94 -19 24 -42 41 -62 44 -46 10 -112 59 -140 106 -19 32 -34 44 -65 52 -44 12
-120 61 -128 82 -3 8 -18 18 -33 21 -41 11 -105 59 -144 109 -19 25 -46 48
-60 52 -14 4 -46 21 -71 40 -25 18 -57 36 -70 40 -34 11 -107 62 -119 84 -5
10 -22 22 -36 25 -33 9 -113 63 -120 81 -3 7 -17 16 -31 20 -32 8 -107 58
-125 84 -7 10 -30 26 -51 36 -22 10 -55 33 -74 51 -19 18 -45 36 -57 40 -11 4
-32 14 -46 24 -14 9 -40 22 -59 28 -18 7 -55 28 -82 47 -27 19 -52 35 -57 35
-4 0 -23 10 -42 23 -19 13 -54 29 -76 35 -26 8 -61 31 -93 62 -28 28 -56 50
-62 50 -6 0 -23 8 -37 19 -15 10 -40 21 -55 25 -38 9 -102 52 -121 81 -8 12
-27 26 -42 29 -15 4 -40 16 -55 27 -15 10 -31 19 -36 19 -4 0 -24 11 -43 23
-19 13 -46 27 -60 30 -14 4 -47 24 -75 44 -27 21 -72 49 -100 62 -48 23 -68
32 -135 66 -16 8 -42 21 -57 28 -16 7 -37 18 -48 24 -11 5 -33 16 -50 25 -16
8 -39 19 -50 25 -11 6 -36 18 -55 27 -19 10 -62 33 -95 52 -33 19 -67 37 -75
40 -19 7 -70 31 -90 42 -8 5 -31 17 -50 27 -19 10 -60 31 -90 47 -30 17 -76
41 -102 54 -25 13 -49 28 -53 34 -3 5 -14 10 -24 10 -10 0 -35 11 -55 25 -20
14 -45 25 -55 25 -9 0 -26 7 -37 15 -10 8 -28 15 -39 15 -11 0 -37 11 -57 25
-20 14 -42 25 -49 25 -6 0 -26 9 -44 20 -17 11 -60 26 -95 34 -35 8 -75 24
-89 34 -15 10 -43 24 -63 31 -20 7 -42 19 -48 27 -7 7 -20 14 -29 14 -9 0 -29
9 -46 20 -16 11 -53 24 -82 30 -29 6 -68 22 -88 36 -20 13 -41 24 -48 24 -7 0
-29 11 -49 25 -20 14 -42 25 -49 25 -6 0 -26 8 -43 19 -17 10 -53 24 -80 30
-27 7 -62 21 -77 32 -15 10 -33 19 -41 19 -7 0 -23 7 -35 15 -12 8 -47 22 -80
30 -152 39 -208 56 -238 75 -18 11 -41 20 -51 20 -11 0 -29 7 -41 15 -12 8
-48 21 -82 29 -33 8 -75 23 -93 34 -18 11 -51 24 -73 28 -22 3 -56 15 -75 25
-20 9 -54 21 -75 25 -22 3 -56 15 -75 25 -20 9 -54 20 -75 24 -22 4 -50 14
-62 21 -12 8 -49 20 -81 28 -32 7 -70 21 -83 29 -13 9 -52 22 -85 30 -33 8
-72 21 -85 30 -13 9 -42 19 -64 22 -22 4 -50 14 -62 21 -12 8 -50 21 -84 29
-34 7 -67 19 -72 24 -6 6 -27 11 -47 11 -46 0 -267 57 -294 75 -11 8 -34 15
-51 15 -41 1 -146 27 -158 39 -6 6 -25 11 -42 11 -41 1 -145 26 -158 39 -6 6
-27 11 -47 11 -40 1 -137 22 -165 38 -11 5 -51 16 -90 22 -38 7 -84 21 -101
31 -20 12 -51 19 -85 19 -61 1 -166 23 -182 39 -6 6 -36 11 -67 11 -58 1 -152
20 -188 39 -11 6 -42 11 -69 11 -61 1 -155 23 -185 44 -13 9 -43 16 -73 16
-57 1 -163 24 -178 39 -7 7 -58 11 -122 11 -108 1 -218 19 -238 39 -6 6 -56
11 -117 11 -104 1 -213 19 -233 39 -7 7 -64 11 -141 11 -79 1 -155 6 -191 15
-43 11 -126 15 -295 15 -230 1 -313 9 -368 39 -29 15 -1959 15 -1986 0z m139
-1791 c5 4 5 1 1 -6 -6 -10 -11 -10 -22 -1 -8 6 -14 14 -14 16 0 3 6 0 13 -6
8 -6 18 -7 22 -3z m130 -148 c3 -6 -1 -7 -9 -4 -18 7 -21 14 -7 14 6 0 13 -4
16 -10z m-10 -19 c3 -5 2 -12 -3 -15 -5 -3 -9 1 -9 9 0 17 3 19 12 6z m3505
-375 c0 -11 -19 -15 -25 -6 -3 5 1 10 9 10 9 0 16 -2 16 -4z m70 -93 c-1 -24
-2 -26 -11 -10 -5 9 -7 22 -4 27 10 17 15 11 15 -17z m1078 -271 c2 -7 -2 -10
-12 -6 -9 3 -16 11 -16 16 0 13 23 5 28 -10z m122 -69 c0 -24 -2 -43 -4 -43
-3 0 -19 13 -37 29 -20 19 -30 35 -26 45 4 9 2 16 -3 16 -6 0 -10 4 -10 9 0 4
18 3 40 -2 39 -11 40 -12 40 -54z m160 -19 c0 -11 -5 -14 -16 -10 -9 3 -18 6
-20 6 -3 0 -2 5 1 10 10 16 35 12 35 -6z m73 -21 c-7 -2 -19 -2 -25 0 -7 3 -2
5 12 5 14 0 19 -2 13 -5z m-73 -23 c0 -13 -7 -20 -20 -20 -13 0 -20 7 -20 20
0 13 7 20 20 20 13 0 20 -7 20 -20z m440 -116 c0 -8 -8 -18 -17 -21 -10 -4
-21 -11 -24 -16 -4 -6 -15 -6 -25 -2 -17 8 -17 9 4 12 15 3 22 11 22 28 0 18
4 22 20 18 11 -3 20 -12 20 -19z m227 -67 c3 -4 -1 -7 -10 -7 -23 0 -22 -20 1
-21 37 -1 -23 -18 -63 -17 -30 1 -33 2 -12 5 23 4 26 7 16 19 -6 8 -18 14 -25
14 -8 0 -14 4 -14 9 0 11 96 8 107 -2z m196 -94 c-13 -2 -33 -2 -45 0 -13 2
-3 4 22 4 25 0 35 -2 23 -4z m90 -20 c-7 -2 -19 -2 -25 0 -7 3 -2 5 12 5 14 0
19 -2 13 -5z m107 -53 c0 -5 -4 -10 -10 -10 -5 0 -10 5 -10 10 0 6 5 10 10 10
6 0 10 -4 10 -10z m73 -27 c-7 -2 -19 -2 -25 0 -7 3 -2 5 12 5 14 0 19 -2 13
-5z m-93 -13 c0 -5 -6 -10 -14 -10 -8 0 -18 5 -21 10 -3 6 3 10 14 10 12 0 21
-4 21 -10z m180 -25 c10 -12 10 -15 -4 -15 -9 0 -16 7 -16 15 0 8 2 15 4 15 2
0 9 -7 16 -15z m133 -42 c-7 -2 -19 -2 -25 0 -7 3 -2 5 12 5 14 0 19 -2 13 -5z
m107 -53 c0 -5 -4 -10 -10 -10 -5 0 -10 -7 -10 -16 0 -10 -7 -14 -20 -12 -28
4 -28 20 1 35 29 15 39 16 39 3z m203 -87 c-13 -2 -33 -2 -45 0 -13 2 -3 4 22
4 25 0 35 -2 23 -4z m112 -72 c3 -5 1 -12 -5 -16 -5 -3 -10 1 -10 9 0 18 6 21
15 7z m165 -66 c10 -12 10 -15 -4 -15 -9 0 -16 7 -16 15 0 8 2 15 4 15 2 0 9
-7 16 -15z m220 -111 c0 -8 -4 -12 -10 -9 -5 3 -10 10 -10 16 0 5 5 9 10 9 6
0 10 -7 10 -16z m100 -49 c10 -12 10 -15 -4 -15 -9 0 -16 7 -16 15 0 8 2 15 4
15 2 0 9 -7 16 -15z m160 -80 c10 -12 10 -15 -4 -15 -9 0 -16 7 -16 15 0 8 2
15 4 15 2 0 9 -7 16 -15z m400 -240 c10 -12 10 -15 -4 -15 -9 0 -16 7 -16 15
0 8 2 15 4 15 2 0 9 -7 16 -15z m160 -95 c0 -5 -4 -10 -10 -10 -5 0 -10 5 -10
10 0 6 5 10 10 10 6 0 10 -4 10 -10z m65 -30 c3 -6 -1 -7 -9 -4 -18 7 -21 14
-7 14 6 0 13 -4 16 -10z m1005 -1085 c0 -8 -7 -15 -15 -15 -8 0 -15 7 -15 15
0 8 7 15 15 15 8 0 15 -7 15 -15z m190 -260 c0 -8 -7 -15 -16 -15 -14 0 -14 3
-4 15 7 8 14 15 16 15 2 0 4 -7 4 -15z m-3 -127 c-3 -7 -5 -2 -5 12 0 14 2 19
5 13 2 -7 2 -19 0 -25z m258 -278 c3 -5 1 -10 -4 -10 -6 0 -11 5 -11 10 0 6 2
10 4 10 3 0 8 -4 11 -10z m359 -1035 c4 -11 -2 -15 -21 -15 -21 0 -24 2 -13
15 7 8 16 15 20 15 4 0 10 -7 14 -15z m167 -95 c13 0 19 -7 19 -24 0 -14 5
-28 10 -31 14 -9 13 -105 -1 -105 -7 0 -10 15 -7 40 3 39 3 40 -29 40 -32 0
-33 1 -33 44 0 24 3 53 7 63 7 16 8 16 11 -4 2 -15 10 -23 23 -23z m143 -336
c11 -29 7 -64 -9 -64 -11 0 -15 11 -15 40 0 40 13 53 24 24z m56 -214 c0 -40
-4 -70 -10 -70 -6 0 -10 30 -10 70 0 40 4 70 10 70 6 0 10 -30 10 -70z m480
-1225 c0 -8 -4 -15 -10 -15 -5 0 -10 7 -10 15 0 8 5 15 10 15 6 0 10 -7 10
-15z m-41 -105 c1 -9 6 -21 13 -28 9 -9 7 -12 -10 -12 -19 0 -22 5 -22 40 0
22 -4 40 -10 40 -5 0 -10 12 -9 28 0 25 2 25 19 -13 10 -22 19 -47 19 -55z
m68 -101 c7 -13 13 -42 12 -64 l0 -40 -16 40 c-9 22 -20 42 -25 43 -4 2 -8 15
-8 29 0 30 20 26 37 -8z m-57 -103 c0 -3 -4 -8 -10 -11 -5 -3 -10 -1 -10 4 0
6 5 11 10 11 6 0 10 -2 10 -4z m114 -42 c4 -10 1 -14 -6 -12 -15 5 -23 28 -10
28 5 0 13 -7 16 -16z m-107 -26 c-3 -8 -6 -5 -6 6 -1 11 2 17 5 13 3 -3 4 -12
1 -19z m132 -53 c6 -3 11 -14 11 -23 -1 -16 -1 -16 -11 1 -12 21 -29 22 -29 2
0 -8 -4 -15 -10 -15 -5 0 -10 7 -10 15 0 8 5 15 10 15 6 0 10 12 11 28 0 25 1
25 9 6 5 -12 13 -25 19 -29z m61 -106 c0 -5 -7 -9 -15 -9 -9 0 -15 9 -15 21 0
18 2 19 15 9 8 -7 15 -16 15 -21z m-110 -6 c0 -20 -3 -24 -11 -16 -7 7 -9 19
-6 27 10 24 17 19 17 -11z m143 -78 c9 -20 17 -47 17 -60 0 -22 -4 -25 -40
-25 -36 0 -40 3 -40 25 0 13 -8 28 -17 34 -25 13 -9 24 32 23 37 -1 43 6 23
26 -7 7 -8 12 -2 12 6 0 18 -16 27 -35z m77 -170 c0 -11 5 -26 12 -33 9 -9 9
-12 0 -12 -6 0 -14 12 -18 28 -10 45 -13 52 -25 52 -7 0 -9 -9 -5 -26 5 -19 3
-25 -6 -22 -16 6 -24 48 -9 48 6 0 11 7 11 17 0 13 4 11 20 -7 11 -13 20 -33
20 -45z m-60 -85 c0 -5 -2 -10 -4 -10 -3 0 -8 5 -11 10 -3 6 -1 10 4 10 6 0
11 -4 11 -10z m290 -376 c0 -8 7 -14 15 -14 8 0 15 -9 15 -20 0 -13 -7 -20
-20 -20 -13 0 -20 7 -20 20 0 11 -4 20 -10 20 -5 0 -10 12 -10 26 0 22 2 25
15 14 8 -7 15 -19 15 -26z m-133 -136 c-3 -8 -6 -5 -6 6 -1 11 2 17 5 13 3 -3
4 -12 1 -19z m433 -509 c0 -5 -7 -9 -15 -9 -8 0 -15 7 -15 15 0 9 6 12 15 9 8
-4 15 -10 15 -15z m57 -111 c-3 -8 -6 -5 -6 6 -1 11 2 17 5 13 3 -3 4 -12 1
-19z m168 -288 c3 -5 1 -10 -4 -10 -6 0 -11 5 -11 10 0 6 2 10 4 10 3 0 8 -4
11 -10z m45 -77 c0 -7 -9 -13 -20 -13 -16 0 -20 7 -20 38 l0 37 20 -25 c11
-14 20 -31 20 -37z m50 -93 c0 -9 9 -29 20 -43 26 -33 25 -37 -5 -37 -22 0
-25 4 -25 40 0 22 -4 40 -10 40 -5 0 -10 7 -10 15 0 9 6 12 15 9 8 -4 15 -14
15 -24z m70 -190 c0 -27 3 -30 30 -30 17 0 30 -4 30 -10 0 -5 -13 -10 -28 -10
-21 0 -32 7 -40 25 -15 32 -15 55 -2 55 6 0 10 -13 10 -30z m130 -205 c0 -3
-11 -5 -25 -5 -23 0 -25 4 -25 41 l0 42 25 -37 c14 -20 25 -39 25 -41z m56
-129 c7 -41 -10 -50 -20 -11 -4 14 -11 25 -16 25 -6 0 -10 14 -10 30 0 30 0
30 19 11 11 -11 23 -36 27 -55z m79 -156 c4 -25 12 -40 21 -40 8 0 14 -9 14
-20 0 -13 -7 -20 -18 -20 -13 0 -21 13 -30 45 -7 25 -16 45 -22 45 -5 0 -10 7
-10 15 0 8 9 15 19 15 15 0 21 -10 26 -40z m82 5 c0 -8 -4 -12 -9 -9 -5 3 -6
10 -3 15 9 13 12 11 12 -6z"/>
<path d="M24520 42006 c0 -9 5 -16 10 -16 6 0 10 4 10 9 0 6 -4 13 -10 16 -5
3 -10 -1 -10 -9z"/>
<path d="M24659 41893 c-13 -16 -12 -17 4 -4 16 13 21 21 13 21 -2 0 -10 -8
-17 -17z"/>
<path d="M24669 41873 l-24 -28 24 20 24 20 -7 -22 c-4 -12 -3 -24 1 -26 5 -3
9 2 9 11 1 9 4 25 9 35 11 26 -8 20 -36 -10z"/>
<path d="M25878 41843 c23 -2 61 -2 85 0 23 2 4 4 -43 4 -47 0 -66 -2 -42 -4z"/>
<path d="M24757 41825 c-5 -10 -1 -14 13 -12 11 2 23 7 27 13 5 5 4 6 -1 2 -5
-4 -15 -3 -21 2 -9 8 -14 6 -18 -5z"/>
<path d="M26098 41753 c12 -2 32 -2 45 0 12 2 2 4 -23 4 -25 0 -35 -2 -22 -4z"/>
<path d="M26241 41746 c12 -10 79 -16 79 -6 0 5 -19 10 -42 10 -23 0 -39 -2
-37 -4z"/>
<path d="M26378 41733 c7 -3 16 -2 19 1 4 3 -2 6 -13 5 -11 0 -14 -3 -6 -6z"/>
<path d="M26488 41723 c7 -3 16 -2 19 1 4 3 -2 6 -13 5 -11 0 -14 -3 -6 -6z"/>
<path d="M26680 41695 c-11 -13 -8 -15 14 -15 16 0 26 5 26 15 0 8 -6 15 -14
15 -7 0 -19 -7 -26 -15z"/>
<path d="M26978 41683 c12 -2 32 -2 45 0 12 2 2 4 -23 4 -25 0 -35 -2 -22 -4z"/>
<path d="M26906 41665 c-11 -8 -15 -15 -9 -15 6 0 16 7 23 15 16 19 11 19 -14
0z"/>
<path d="M27338 41613 c-8 -10 2 -13 46 -13 49 0 56 -2 56 -20 0 -17 7 -20 40
-20 33 0 40 3 40 20 0 17 -7 20 -40 20 -22 0 -40 4 -40 9 0 15 -90 18 -102 4z"/>
<path d="M27608 41553 c6 -2 18 -2 25 0 6 3 1 5 -13 5 -14 0 -19 -2 -12 -5z"/>
<path d="M27680 41485 c0 -11 11 -15 40 -15 29 0 40 4 40 15 0 11 -11 15 -40
15 -29 0 -40 -4 -40 -15z"/>
<path d="M27928 41443 c6 -2 18 -2 25 0 6 3 1 5 -13 5 -14 0 -19 -2 -12 -5z"/>
<path d="M28280 41340 c6 -11 12 -20 14 -20 2 0 2 9 -1 20 -3 11 -9 20 -15 20
-5 0 -4 -9 2 -20z"/>
<path d="M33026 39083 c-6 -14 -5 -15 5 -6 7 7 10 15 7 18 -3 3 -9 -2 -12 -12z"/>
<path d="M33235 38870 c4 -6 11 -8 16 -5 14 9 11 15 -7 15 -8 0 -12 -5 -9 -10z"/>
<path d="M33330 38764 c0 -3 7 -12 15 -20 16 -17 18 -14 9 10 -6 15 -24 23
-24 10z"/>
<path d="M33440 38741 c0 -12 5 -21 10 -21 6 0 10 6 10 14 0 8 -4 18 -10 21
-5 3 -10 -3 -10 -14z"/>
<path d="M33360 38710 c0 -5 14 -10 30 -10 26 0 30 -4 30 -26 0 -14 6 -32 14
-40 8 -8 26 -14 40 -14 23 0 26 -4 26 -34 0 -19 5 -38 10 -41 16 -10 12 65 -4
81 -8 8 -26 14 -40 14 -21 0 -26 5 -26 26 0 14 -6 32 -14 40 -17 16 -66 19
-66 4z"/>
<path d="M34160 37301 c0 -12 5 -21 10 -21 6 0 10 6 10 14 0 8 -4 18 -10 21
-5 3 -10 -3 -10 -14z"/>
<path d="M34100 37276 c0 -2 7 -9 15 -16 12 -10 15 -10 15 4 0 9 -7 16 -15 16
-8 0 -15 -2 -15 -4z"/>
<path d="M34140 37193 c0 -5 5 -15 10 -23 8 -12 10 -11 10 8 0 12 -4 22 -10
22 -5 0 -10 -3 -10 -7z"/>
<path d="M34190 37080 c0 -29 4 -40 15 -40 11 0 15 11 15 40 0 29 -4 40 -15
40 -11 0 -15 -11 -15 -40z"/>
<path d="M34227 36986 c-4 -10 -5 -21 -2 -24 9 -9 17 6 13 25 -3 17 -4 17 -11
-1z"/>
<path d="M34286 36865 c4 -8 8 -15 10 -15 2 0 4 7 4 15 0 8 -4 15 -10 15 -5 0
-7 -7 -4 -15z"/>
<path d="M34400 36740 c0 -11 5 -20 10 -20 6 0 10 9 10 20 0 11 -4 20 -10 20
-5 0 -10 -9 -10 -20z"/>
<path d="M34597 36343 c-4 -3 -7 -46 -7 -95 0 -69 3 -88 14 -88 11 0 15 20 18
85 2 47 2 90 0 95 -4 12 -16 13 -25 3z m18 -13 c3 -5 1 -10 -4 -10 -6 0 -11 5
-11 10 0 6 2 10 4 10 3 0 8 -4 11 -10z"/>
<path d="M34640 36200 c0 -22 5 -40 10 -40 6 0 10 18 10 40 0 22 -4 40 -10 40
-5 0 -10 -18 -10 -40z"/>
<path d="M34587 36084 c-11 -11 -8 -19 14 -45 l21 -24 -4 34 c-3 33 -17 49
-31 35z"/>
<path d="M34620 35985 c0 -8 5 -15 10 -15 6 0 10 7 10 15 0 8 -4 15 -10 15 -5
0 -10 -7 -10 -15z"/>
<path d="M40391 35983 c-7 -13 -11 -77 -11 -163 0 -138 -19 -272 -41 -285 -5
-4 -9 -53 -9 -111 0 -103 -22 -238 -41 -249 -5 -4 -9 -30 -9 -58 0 -29 -7 -79
-15 -112 -8 -33 -14 -86 -15 -118 0 -64 -26 -194 -41 -202 -5 -4 -9 -30 -9
-58 0 -58 -25 -174 -41 -194 -6 -7 -18 -50 -25 -95 -8 -45 -21 -95 -28 -112
-8 -17 -19 -60 -26 -96 -6 -36 -17 -78 -25 -95 -7 -16 -18 -64 -24 -105 -6
-41 -20 -91 -30 -110 -10 -20 -22 -51 -26 -70 -4 -19 -15 -53 -24 -75 -10 -22
-24 -69 -30 -105 -7 -36 -21 -83 -31 -105 -10 -22 -21 -56 -25 -75 -4 -19 -13
-48 -21 -65 -7 -16 -20 -59 -29 -95 -9 -36 -20 -69 -25 -75 -5 -5 -16 -39 -25
-75 -9 -36 -20 -69 -24 -75 -5 -5 -16 -41 -25 -80 -10 -38 -21 -74 -25 -80 -5
-5 -14 -32 -20 -60 -7 -27 -21 -64 -32 -81 -10 -17 -19 -38 -19 -45 0 -8 -7
-27 -15 -43 -8 -16 -22 -55 -31 -89 -8 -33 -21 -69 -29 -81 -7 -11 -21 -48
-30 -81 -9 -33 -25 -71 -35 -85 -27 -39 -47 -89 -65 -160 -9 -35 -25 -76 -35
-90 -9 -14 -21 -36 -25 -50 -4 -14 -15 -36 -25 -50 -9 -14 -22 -47 -29 -74 -7
-27 -20 -61 -30 -75 -10 -14 -22 -37 -26 -51 -4 -14 -16 -37 -26 -52 -11 -14
-19 -29 -19 -33 0 -4 -7 -21 -14 -38 -8 -18 -22 -59 -30 -92 -8 -33 -33 -94
-54 -136 -22 -41 -43 -86 -47 -100 -4 -13 -15 -35 -25 -49 -9 -14 -20 -38 -24
-54 -4 -17 -16 -42 -27 -57 -10 -15 -19 -33 -19 -41 0 -7 -7 -24 -17 -37 -9
-13 -29 -49 -44 -80 -16 -31 -33 -63 -38 -71 -22 -38 -50 -111 -57 -146 -7
-39 -14 -54 -66 -143 -15 -25 -37 -68 -51 -96 -13 -27 -40 -68 -61 -89 -20
-22 -36 -47 -36 -57 0 -9 -10 -32 -23 -51 -13 -18 -26 -43 -29 -53 -16 -52
-49 -129 -61 -144 -8 -9 -24 -36 -36 -61 -11 -25 -24 -52 -29 -60 -5 -8 -20
-40 -34 -70 -79 -171 -94 -198 -138 -250 -20 -25 -47 -64 -58 -87 -12 -23 -26
-44 -32 -48 -5 -3 -10 -13 -10 -22 0 -21 -109 -204 -131 -220 -15 -11 -34 -66
-30 -86 1 -5 -3 -6 -9 -2 -10 6 -11 5 -15 -31 -1 -12 -12 -36 -24 -53 -22 -31
-17 -42 9 -18 7 6 3 -1 -9 -18 -21 -28 -21 -30 -4 -36 17 -7 17 -8 0 -8 -14
-1 -16 -7 -12 -28 5 -26 5 -26 -4 -5 -13 27 -21 29 -14 2 3 -12 0 -20 -6 -20
-7 0 -9 5 -5 12 4 7 3 8 -4 4 -15 -9 -16 -43 -2 -51 6 -3 10 1 10 9 0 9 8 16
18 15 10 0 12 -3 5 -6 -15 -6 -18 -93 -3 -93 6 0 10 -18 10 -40 0 -28 4 -40
14 -40 10 0 16 -13 18 -40 2 -22 8 -40 13 -40 6 0 11 18 13 40 4 52 22 52 22
0 0 -22 5 -40 10 -40 6 0 10 -11 10 -25 0 -14 -4 -25 -10 -25 -5 0 -10 11 -10
25 0 14 -4 25 -10 25 -5 0 -10 -18 -10 -40 0 -33 3 -40 19 -40 11 0 21 6 24
13 7 20 14 5 21 -45 8 -50 -7 -68 -18 -23 -12 47 -26 25 -26 -40 0 -62 1 -65
24 -65 23 0 24 -4 31 -80 4 -44 11 -80 16 -80 5 0 9 -18 9 -40 0 -29 4 -40 15
-40 11 0 15 -11 15 -40 0 -29 4 -40 15 -40 12 0 15 -16 15 -80 0 -47 4 -80 10
-80 6 0 10 -18 10 -40 0 -29 4 -40 15 -40 11 0 15 -11 15 -40 0 -22 4 -40 9
-40 5 0 12 -36 16 -80 4 -44 11 -80 16 -80 5 0 9 36 9 80 0 47 -4 80 -10 80
-5 0 -10 18 -10 40 0 22 5 40 10 40 6 0 10 -18 10 -40 0 -22 5 -40 10 -40 6 0
10 -47 10 -120 0 -113 1 -120 20 -120 14 0 18 -5 13 -17 -4 -10 -10 -20 -14
-23 -9 -6 -12 -25 -10 -77 1 -31 5 -43 16 -43 11 0 15 11 15 38 0 20 5 44 10
52 7 11 10 0 10 -37 0 -29 -4 -53 -10 -53 -6 0 -10 -33 -10 -80 0 -47 4 -80
10 -80 6 0 10 -20 10 -44 0 -39 2 -44 20 -39 18 5 20 0 20 -38 0 -29 -3 -39
-9 -30 -5 8 -7 -5 -3 -35 2 -27 8 -51 12 -54 5 -3 11 -40 15 -82 6 -67 10 -78
26 -78 17 0 19 -8 19 -80 0 -47 4 -80 10 -80 6 0 10 -60 10 -160 0 -100 4
-160 10 -160 6 0 10 -33 10 -80 0 -47 4 -80 10 -80 6 0 10 -60 10 -160 0 -136
2 -160 15 -160 12 0 15 -19 15 -107 0 -60 5 -137 11 -173 17 -101 19 -1269 3
-1400 -7 -58 -16 -171 -20 -252 -3 -82 -10 -148 -14 -148 -4 0 -10 -60 -13
-132 -10 -204 -48 -508 -64 -508 -10 0 -13 -28 -13 -120 0 -66 -4 -120 -9
-120 -5 0 -12 -36 -16 -80 -5 -59 -11 -80 -21 -80 -11 0 -13 -9 -8 -40 5 -33
4 -40 -10 -40 -13 0 -16 -13 -16 -80 0 -44 -4 -80 -9 -80 -5 0 -12 -35 -16
-77 -4 -43 -11 -81 -16 -84 -5 -3 -12 -58 -16 -122 -5 -105 -8 -117 -25 -117
-14 0 -18 -8 -18 -40 0 -22 -4 -40 -10 -40 -6 0 -10 -33 -10 -80 0 -73 -2 -80
-20 -80 -21 0 -27 -15 -10 -25 6 -3 10 -17 10 -31 0 -18 -5 -24 -21 -24 -20 0
-21 -4 -16 -47 3 -27 8 -59 12 -73 6 -24 6 -25 -10 -5 l-16 20 -14 -20 c-8
-11 -19 -25 -24 -31 -5 -6 -12 -45 -16 -88 -4 -42 -11 -76 -16 -76 -5 0 -9
-18 -9 -40 0 -28 -4 -40 -14 -40 -9 0 -12 -7 -9 -20 3 -11 9 -20 13 -20 4 0
10 -9 13 -20 4 -16 0 -20 -18 -20 -13 0 -26 6 -28 13 -3 6 -6 2 -6 -10 -1 -12
4 -25 9 -28 6 -3 10 -17 10 -31 0 -13 5 -24 10 -24 6 0 3 -15 -7 -32 l-18 -33
-5 45 c-6 52 -20 33 -20 -26 0 -24 -4 -33 -11 -28 -9 5 -10 -16 -4 -80 6 -75
5 -86 -9 -86 -11 0 -16 -9 -16 -27 0 -16 -5 -35 -10 -43 -7 -11 -10 -4 -10 28
0 23 5 42 10 42 6 0 10 20 10 45 0 25 -4 45 -10 45 -5 0 -10 -20 -10 -45 0
-33 -4 -45 -15 -45 -11 0 -15 -11 -15 -40 0 -36 -2 -40 -25 -40 -24 0 -25 -2
-26 -72 -1 -40 -1 -95 0 -123 2 -37 -1 -46 -8 -35 -6 8 -11 27 -11 43 0 17 -5
27 -15 27 -11 0 -15 -11 -15 -40 0 -29 -4 -40 -15 -40 -11 0 -15 -11 -15 -40
0 -36 3 -40 25 -40 27 0 30 -6 15 -30 -8 -12 -13 -13 -29 -3 -18 11 -22 10
-33 -10 -12 -23 -26 -83 -35 -154 -3 -24 -10 -43 -15 -43 -6 0 -8 -11 -6 -25
3 -14 2 -25 -3 -25 -4 0 -10 -8 -12 -17 -3 -10 -5 1 -6 25 0 23 4 42 9 42 6 0
10 8 10 18 -1 16 -1 16 -14 0 -7 -10 -18 -18 -25 -18 -6 0 -11 -17 -11 -40 0
-29 -4 -40 -15 -40 -10 0 -15 -10 -15 -34 0 -19 -4 -38 -10 -41 -5 -3 -10 -17
-10 -31 0 -13 5 -24 10 -24 6 0 10 11 10 25 0 18 5 25 20 25 18 0 19 -3 9 -22
-6 -13 -20 -31 -30 -41 -17 -16 -19 -16 -19 -2 0 9 -5 15 -12 13 -15 -5 -17
-106 -3 -111 5 -2 -3 -15 -18 -29 -15 -14 -27 -32 -27 -39 0 -8 -18 -30 -40
-49 -28 -24 -40 -43 -39 -60 l1 -25 8 25 c7 21 8 19 9 -17 1 -42 -14 -60 -21
-26 -3 15 -4 15 -20 -1 -10 -10 -18 -30 -18 -45 0 -15 -5 -32 -12 -39 -9 -9
-8 -12 5 -12 27 0 4 -35 -33 -50 -22 -9 -33 -22 -41 -52 -7 -28 -7 -44 0 -51
15 -15 -3 -42 -39 -57 -32 -13 -40 -30 -14 -30 10 0 -4 -19 -35 -49 -28 -27
-51 -55 -51 -61 0 -7 -8 -19 -17 -26 -15 -11 -16 -15 -4 -23 18 -12 7 -41 -19
-48 -11 -3 -20 -12 -20 -19 0 -8 -3 -14 -8 -14 -7 0 -25 -30 -38 -62 -3 -10
-13 -18 -20 -18 -10 0 -14 -13 -14 -40 0 -22 -4 -40 -9 -40 -5 0 -11 -8 -15
-17 -6 -21 -25 -51 -43 -71 -7 -7 -14 -23 -15 -35 0 -12 -2 -27 -2 -33 -1 -5
-17 -25 -36 -44 -19 -19 -35 -39 -35 -44 0 -6 -8 -23 -18 -38 -10 -15 -16 -32
-12 -37 8 -13 -23 -61 -40 -61 -7 0 -18 -13 -23 -29 -6 -16 -20 -34 -31 -41
-14 -7 -21 -21 -21 -39 0 -16 -7 -31 -15 -34 -8 -4 -23 -23 -34 -45 -11 -21
-27 -44 -35 -51 -15 -12 -15 -15 1 -28 16 -13 16 -13 -4 -4 -32 16 -33 15 -33
-29 0 -33 -4 -40 -19 -40 -11 0 -18 -6 -17 -16 2 -26 -21 -27 -29 -2 -7 19 -9
16 -12 -19 -4 -40 -6 -43 -33 -43 -26 0 -28 -3 -28 -37 0 -23 -6 -39 -16 -45
-9 -5 -16 -16 -16 -23 0 -8 -4 -15 -10 -15 -5 0 -10 -7 -10 -15 0 -9 -7 -18
-15 -21 -8 -4 -15 -12 -15 -20 0 -7 -8 -18 -18 -23 -10 -5 -24 -22 -32 -38 -8
-15 -25 -38 -37 -50 -13 -12 -23 -26 -23 -31 0 -5 -9 -17 -20 -27 -11 -10 -18
-20 -16 -24 7 -10 316 -13 329 -3 28 23 102 35 252 42 117 5 172 12 205 25 29
11 82 19 150 22 58 3 125 12 150 20 25 8 92 19 150 23 58 4 125 13 150 20 25
6 83 18 130 25 102 16 274 52 315 66 59 21 141 38 176 39 19 0 39 4 45 9 16
16 130 41 187 41 31 0 58 4 61 9 3 5 30 14 58 21 29 7 68 21 86 31 38 22 137
49 179 49 16 0 33 4 39 9 12 13 125 41 161 41 16 0 33 4 39 9 5 5 38 17 74 26
36 9 70 20 75 25 6 5 39 16 75 25 36 9 75 23 87 31 13 8 71 26 129 40 59 13
125 33 148 43 22 10 66 24 96 31 30 7 60 16 65 20 6 5 39 16 75 25 36 9 79 22
95 29 17 8 46 17 65 21 19 4 46 15 60 25 14 10 36 21 50 25 14 4 37 16 51 26
15 10 53 25 85 33 33 7 73 21 89 30 17 9 33 16 38 16 4 0 24 11 45 24 20 14
60 30 87 37 52 13 91 29 183 78 63 34 153 71 187 77 22 3 56 15 75 25 57 30
128 59 142 59 8 0 18 4 24 9 9 10 88 53 139 78 17 8 39 19 50 25 11 7 34 18
50 25 17 8 41 21 55 29 14 8 41 22 60 31 19 8 46 23 60 33 14 9 36 21 50 25
14 4 36 15 50 25 14 10 36 21 50 25 14 4 36 15 50 25 14 10 36 21 50 25 14 4
39 18 55 30 17 13 40 26 53 30 12 3 37 20 55 36 17 16 52 39 77 50 25 11 59
26 75 34 110 49 167 79 171 90 7 17 83 70 114 80 14 4 36 15 50 25 14 10 36
21 50 25 14 3 34 17 45 29 31 35 87 74 118 81 15 4 33 15 40 24 18 25 78 68
107 76 14 4 39 17 55 30 17 12 41 26 54 30 14 4 36 18 50 31 28 26 81 54 103
54 7 0 28 16 46 34 18 19 48 41 66 50 36 17 62 56 53 81 -7 16 17 132 32 163
13 26 43 178 51 262 9 90 28 178 41 186 5 3 9 27 9 54 0 61 27 180 46 201 8 9
14 36 14 62 0 52 27 177 41 192 5 5 9 30 9 56 0 54 26 179 41 194 5 5 9 44 9
86 0 78 23 206 41 224 5 5 9 51 9 101 0 97 21 213 46 251 10 16 14 54 14 137
0 111 20 239 41 261 5 5 9 78 9 161 0 148 17 275 41 298 5 6 9 111 9 237 0
171 4 245 16 296 8 37 20 72 25 77 5 6 9 445 9 1111 0 666 -4 1105 -9 1111 -5
5 -17 40 -25 77 -12 51 -16 125 -16 296 0 126 -4 231 -9 237 -24 23 -41 150
-41 298 0 83 -4 156 -9 162 -19 19 -41 148 -41 242 0 69 -4 104 -14 118 -25
35 -46 150 -46 248 0 50 -4 96 -9 102 -18 17 -41 145 -41 223 0 42 -4 81 -9
87 -14 13 -41 138 -41 188 0 23 -4 46 -9 52 -15 14 -41 139 -41 192 0 26 -7
57 -15 69 -8 11 -22 56 -31 99 -8 44 -20 87 -25 96 -15 30 -30 100 -39 193 -9
90 -39 241 -52 260 -13 20 -38 148 -33 165 3 9 -1 30 -9 46 -7 16 -19 61 -26
99 -7 39 -20 88 -30 110 -10 22 -21 57 -25 78 -3 21 -15 55 -25 75 -10 21 -24
69 -31 107 -7 39 -16 75 -20 80 -4 6 -15 43 -24 83 -9 39 -20 74 -25 77 -5 3
-14 31 -21 63 -6 31 -20 69 -30 83 -10 14 -23 48 -29 75 -6 27 -18 59 -26 71
-8 12 -19 46 -25 75 -6 29 -17 63 -25 75 -8 12 -19 46 -25 75 -6 29 -20 68
-30 87 -11 18 -25 56 -31 85 -6 28 -17 60 -24 71 -7 11 -27 80 -44 154 -17 74
-35 139 -39 145 -5 6 -16 40 -25 76 -8 36 -22 79 -30 95 -9 17 -16 34 -16 38
0 5 -8 21 -19 35 -10 15 -24 45 -30 67 -15 47 -58 140 -82 176 -10 14 -24 54
-33 90 -8 35 -22 78 -30 94 -9 17 -16 34 -16 38 0 5 -11 23 -24 40 -14 18 -30
54 -36 80 -5 26 -19 64 -30 85 -11 20 -20 41 -20 45 0 5 -9 21 -19 36 -11 15
-23 40 -27 57 -4 16 -15 41 -25 55 -10 15 -25 51 -33 80 -8 30 -21 68 -30 84
-9 17 -16 38 -16 47 0 16 -23 69 -53 123 -6 11 -17 34 -25 50 -9 17 -23 41
-32 55 -10 14 -21 36 -25 50 -4 14 -16 37 -26 51 -10 15 -24 51 -30 80 -10 47
-35 107 -72 174 -6 11 -17 34 -24 50 -8 17 -19 39 -25 50 -6 10 -22 40 -36 65
-14 25 -37 68 -52 95 -15 28 -34 64 -43 80 -9 17 -17 36 -17 43 0 8 -8 26 -19
40 -10 15 -22 38 -26 52 -13 42 -88 176 -145 260 -20 31 -41 67 -45 80 -4 14
-15 36 -25 50 -10 14 -21 36 -25 50 -4 14 -16 37 -26 51 -10 14 -21 38 -25 55
-4 16 -18 43 -31 60 -12 17 -23 36 -23 43 0 7 -11 23 -24 36 -38 38 -73 87
-81 115 -4 14 -15 36 -25 50 -10 14 -21 36 -25 50 -4 14 -18 39 -31 55 -12 17
-26 44 -30 60 -4 17 -10 32 -14 35 -19 15 -59 79 -66 105 -4 17 -15 42 -25 57
-11 14 -19 31 -19 37 0 7 -20 33 -45 59 -25 25 -52 62 -61 82 -9 19 -25 46
-34 60 -10 14 -21 36 -25 49 -4 13 -27 49 -52 79 -24 30 -49 66 -54 80 -5 13
-18 37 -29 51 -10 15 -22 39 -25 54 -4 15 -15 33 -24 40 -24 17 -67 78 -76
107 -4 13 -25 47 -45 75 -21 27 -41 61 -45 75 -4 14 -20 39 -36 55 -15 17 -37
41 -47 54 l-19 25 -12 -21z m-2444 -7085 c-2 -13 -4 -3 -4 22 0 25 2 35 4 23
2 -13 2 -33 0 -45z m153 -454 c0 -19 7 -42 15 -50 8 -9 15 -29 15 -45 0 -19
-5 -29 -15 -29 -11 0 -15 11 -15 40 0 22 -4 40 -10 40 -5 0 -10 18 -10 40 0
22 5 40 10 40 6 0 10 -16 10 -36z m60 -244 c0 -22 5 -40 10 -40 6 0 10 -18 10
-40 0 -29 4 -40 15 -40 11 0 15 -11 15 -40 0 -22 -4 -40 -9 -40 -5 0 -12 18
-16 40 -4 22 -11 40 -16 40 -5 0 -9 18 -9 40 0 22 -4 40 -10 40 -5 0 -10 18
-10 40 0 22 5 40 10 40 6 0 10 -18 10 -40z m196 -840 c10 0 14 -12 14 -40 0
-29 -4 -40 -15 -40 -11 0 -15 11 -15 39 0 22 -5 41 -11 43 -9 3 -9 16 -3 43
l8 40 4 -42 c2 -29 8 -43 18 -43z m44 -280 c0 -22 5 -40 10 -40 6 0 10 -18 10
-40 0 -22 -4 -40 -10 -40 -5 0 -10 18 -10 40 0 22 -4 40 -10 40 -5 0 -10 18
-10 40 0 22 5 40 10 40 6 0 10 -18 10 -40z m87 -582 c-2 -13 -4 -3 -4 22 0 25
2 35 4 23 2 -13 2 -33 0 -45z m43 -298 c0 -22 -4 -40 -10 -40 -5 0 -10 18 -10
40 0 22 5 40 10 40 6 0 10 -18 10 -40z m33 -419 c13 -121 18 -388 9 -446 -8
-47 -10 -9 -11 183 -1 154 -5 242 -11 242 -5 0 -10 18 -10 40 0 61 16 48 23
-19z m47 -821 c0 -47 -4 -80 -10 -80 -6 0 -10 33 -10 80 0 47 4 80 10 80 6 0
10 -33 10 -80z m-24 -487 c-7 -261 -24 -473 -38 -473 -4 0 -8 18 -8 40 0 22 5
40 10 40 6 0 10 73 10 200 0 127 4 200 10 200 6 0 10 47 10 120 0 66 3 120 6
120 3 0 3 -111 0 -247z m-26 -593 c0 -22 -4 -40 -10 -40 -5 0 -10 18 -10 40 0
22 5 40 10 40 6 0 10 -18 10 -40z m-30 -280 c0 -64 -3 -80 -15 -80 -17 0 -18
11 -9 99 10 87 24 76 24 -19z m-35 -245 c-4 -42 -10 -74 -12 -71 -3 2 -2 39 2
81 4 42 10 74 12 71 3 -2 2 -39 -2 -81z m-45 -355 c0 -29 -4 -40 -15 -40 -11
0 -15 11 -15 40 0 29 4 40 15 40 11 0 15 -11 15 -40z m-33 -182 c-2 -13 -4 -3
-4 22 0 25 2 35 4 23 2 -13 2 -33 0 -45z m-47 -298 c0 -29 -4 -40 -15 -40 -11
0 -15 11 -15 40 0 29 4 40 15 40 11 0 15 -11 15 -40z m-43 -112 c-3 -8 -6 -5
-6 6 -1 11 2 17 5 13 3 -3 4 -12 1 -19z m-7 -128 c0 -22 -4 -40 -10 -40 -5 0
-10 18 -10 40 0 22 5 40 10 40 6 0 10 -18 10 -40z m-220 -720 c0 -22 -4 -40
-10 -40 -5 0 -10 18 -10 40 0 22 5 40 10 40 6 0 10 -18 10 -40z m-210 -704 c0
-13 -3 -31 -6 -40 -11 -29 -24 -16 -24 24 0 29 4 40 15 40 9 0 15 -9 15 -24z
m-649 -1435 c-17 -30 -39 -34 -33 -5 3 15 11 24 24 24 15 0 17 -3 9 -19z
m-231 -465 c0 -11 -19 -15 -25 -6 -3 5 1 10 9 10 9 0 16 -2 16 -4z m-180 -245
c0 -5 -7 -11 -14 -14 -10 -4 -13 -1 -9 9 6 15 23 19 23 5z m-110 -155 c0 -3
-4 -8 -10 -11 -5 -3 -10 -1 -10 4 0 6 5 11 10 11 6 0 10 -2 10 -4z m-120 -246
c0 -5 -2 -10 -4 -10 -3 0 -8 5 -11 10 -3 6 -1 10 4 10 6 0 11 -4 11 -10z
m-265 -340 c3 -5 1 -10 -4 -10 -6 0 -11 5 -11 10 0 6 2 10 4 10 3 0 8 -4 11
-10z"/>
<path d="M34705 35510 c3 -5 8 -10 11 -10 2 0 4 5 4 10 0 6 -5 10 -11 10 -5 0
-7 -4 -4 -10z"/>
<path d="M34942 35020 c7 -10 14 -18 15 -16 6 6 -9 36 -18 36 -5 0 -4 -9 3
-20z"/>
<path d="M35020 34860 c6 -11 17 -20 25 -20 8 0 15 -9 15 -20 0 -13 7 -20 20
-20 13 0 20 7 20 20 0 13 -7 20 -20 20 -13 0 -20 7 -20 20 0 15 -7 20 -25 20
-23 0 -24 -2 -15 -20z"/>
<path d="M35065 34710 c3 -5 8 -10 11 -10 2 0 4 5 4 10 0 6 -5 10 -11 10 -5 0
-7 -4 -4 -10z"/>
<path d="M35080 34660 c0 -11 4 -20 10 -20 5 0 12 -11 16 -25 10 -40 17 -21 9
24 -7 42 -35 59 -35 21z"/>
<path d="M35130 34550 c0 -5 5 -10 10 -10 6 0 10 5 10 10 0 6 -4 10 -10 10 -5
0 -10 -4 -10 -10z"/>
<path d="M35171 34544 c0 -11 3 -14 6 -6 3 7 2 16 -1 19 -3 4 -6 -2 -5 -13z"/>
<path d="M35230 34365 c0 -9 5 -15 11 -13 6 2 11 8 11 13 0 5 -5 11 -11 13 -6
2 -11 -4 -11 -13z"/>
<path d="M35400 34060 c0 -19 11 -26 23 -14 8 8 -3 34 -14 34 -5 0 -9 -9 -9
-20z"/>
<path d="M35550 34040 c0 -22 -4 -40 -10 -40 -5 0 -10 -16 -10 -35 0 -26 4
-33 15 -29 16 6 32 -37 20 -56 -9 -14 -35 6 -35 26 0 9 -12 14 -35 14 -40 0
-44 -9 -15 -35 19 -17 20 -17 20 -1 0 10 5 14 11 10 7 -4 9 -21 5 -43 -3 -20
-2 -31 2 -24 4 6 23 13 42 15 l35 3 1 80 c1 65 0 71 -6 35 -6 -39 -7 -34 -8
38 -2 65 -5 82 -17 82 -11 0 -15 -11 -15 -40z"/>
<path d="M35600 33823 c0 -10 9 -29 20 -43 l20 -25 0 28 c0 15 5 27 10 27 6 0
10 7 10 15 0 18 -16 20 -23 3 -4 -10 -6 -10 -6 0 -1 19 -31 14 -31 -5z"/>
<path d="M35688 33660 c-12 -38 -10 -66 3 -53 6 6 9 26 7 44 -3 32 -3 33 -10
9z"/>
<path d="M35734 33667 c3 -10 6 -30 6 -43 0 -17 6 -24 20 -24 13 0 20 -7 20
-20 0 -11 -4 -20 -10 -20 -5 0 -10 -9 -10 -20 0 -11 5 -20 10 -20 6 0 10 9 10
20 0 13 7 20 20 20 17 0 20 7 20 40 0 38 -2 40 -29 40 -19 0 -36 8 -47 23 -12
16 -15 17 -10 4z"/>
<path d="M35630 33590 c0 -5 6 -13 13 -17 7 -4 19 -23 26 -40 9 -22 20 -33 34
-33 17 0 19 -5 14 -40 -3 -26 -1 -43 7 -48 7 -4 20 -25 28 -47 13 -32 18 -36
23 -22 10 25 38 22 31 -3 -3 -11 -8 -28 -11 -37 -6 -23 9 -48 24 -39 6 4 9 12
5 17 -3 5 -2 15 4 22 6 8 -1 31 -19 67 -28 53 -29 54 -29 23 0 -41 -19 -44
-21 -3 -1 17 -2 36 -3 43 -1 6 5 11 12 10 6 -2 12 3 12 10 0 16 -32 47 -47 47
-6 0 -16 13 -21 29 -6 16 -20 39 -31 50 -22 22 -51 28 -51 11z"/>
<path d="M35900 33345 c0 -8 5 -15 10 -15 6 0 10 7 10 15 0 8 -4 15 -10 15 -5
0 -10 -7 -10 -15z"/>
<path d="M35831 33219 c0 -9 8 -28 19 -42 11 -14 20 -32 20 -41 0 -9 6 -16 14
-16 7 0 16 -12 19 -28 3 -15 16 -38 28 -52 16 -18 20 -20 16 -7 -4 10 -7 34
-7 53 0 22 -5 34 -13 34 -12 0 -22 24 -43 98 -5 17 -24 15 -24 -3 0 -21 -18
-19 -23 3 -4 14 -5 14 -6 1z"/>
<path d="M35962 32990 c0 -19 2 -27 5 -17 2 9 2 25 0 35 -3 9 -5 1 -5 -18z"/>
<path d="M35980 32946 c0 -8 5 -18 10 -21 6 -3 10 -15 10 -25 0 -10 5 -20 10
-22 6 -2 18 -21 26 -43 l15 -40 -5 35 c-6 39 -47 130 -58 130 -5 0 -8 -6 -8
-14z"/>
<path d="M36080 32735 c0 -8 6 -15 14 -15 7 0 16 -10 19 -22 4 -12 9 -20 12
-17 3 3 0 20 -6 37 -11 33 -39 44 -39 17z"/>
<path d="M36245 32630 c3 -5 10 -10 16 -10 5 0 9 5 9 10 0 6 -7 10 -16 10 -8
0 -12 -4 -9 -10z"/>
<path d="M36650 31735 c0 -2 6 -8 13 -14 10 -8 14 -7 14 2 0 8 -6 14 -14 14
-7 0 -13 -1 -13 -2z"/>
<path d="M36646 31692 c-3 -5 1 -9 9 -9 8 0 12 4 9 9 -3 4 -7 8 -9 8 -2 0 -6
-4 -9 -8z"/>
<path d="M18436 25072 c-3 -5 1 -9 9 -9 8 0 12 4 9 9 -3 4 -7 8 -9 8 -2 0 -6
-4 -9 -8z"/>
<path d="M18259 24933 c-13 -16 -12 -17 4 -4 16 13 21 21 13 21 -2 0 -10 -8
-17 -17z"/>
<path d="M18485 24751 c-3 -5 -2 -12 3 -15 5 -3 9 1 9 9 0 17 -3 19 -12 6z"/>
<path d="M18488 24683 c7 -3 16 -2 19 1 4 3 -2 6 -13 5 -11 0 -14 -3 -6 -6z"/>
<path d="M18484 24643 c10 -11 37 -12 30 -2 -3 5 -12 9 -21 9 -9 0 -13 -3 -9
-7z"/>
<path d="M18507 24605 c3 -8 9 -12 14 -9 12 7 11 11 -5 17 -10 4 -13 1 -9 -8z"/>
<path d="M18493 24480 c0 -47 2 -66 4 -42 2 23 2 61 0 85 -2 23 -4 4 -4 -43z"/>
<path d="M18543 24360 c0 -25 2 -35 4 -22 2 12 2 32 0 45 -2 12 -4 2 -4 -23z"/>
<path d="M18563 24121 c0 -11 5 -18 9 -15 4 3 5 11 1 19 -7 21 -12 19 -10 -4z"/>
<path d="M15226 21648 c-12 -17 -13 -24 -3 -30 12 -8 10 -9 -15 -12 -8 -1 -12
-13 -10 -34 2 -19 -1 -32 -8 -32 -6 0 -8 5 -5 11 4 6 -2 5 -13 -2 -20 -13 -21
-29 -1 -29 6 0 7 5 3 12 -4 7 -3 8 5 4 6 -4 9 -11 7 -15 -3 -4 -1 -13 5 -21 7
-13 9 -12 9 3 0 9 4 17 9 17 6 0 11 19 13 43 2 32 7 42 20 41 12 -1 15 4 11
20 -2 11 -5 27 -5 34 -2 17 -4 15 -22 -10z m18 -13 c3 -8 1 -15 -4 -15 -6 0
-10 7 -10 15 0 8 2 15 4 15 2 0 6 -7 10 -15z"/>
<path d="M15119 21505 c-2 -26 -4 -29 -34 -72 -17 -23 -40 -46 -52 -52 -13 -6
-23 -19 -23 -28 0 -10 -18 -40 -40 -68 -21 -27 -53 -78 -70 -112 -16 -34 -43
-72 -59 -86 -16 -13 -39 -43 -50 -65 -12 -23 -35 -57 -51 -76 -17 -18 -30 -38
-30 -44 0 -23 -71 -149 -109 -196 -23 -26 -41 -56 -41 -66 0 -20 -43 -88 -72
-112 -11 -10 -30 -36 -42 -57 -11 -22 -33 -62 -48 -90 -16 -28 -44 -66 -63
-85 -19 -20 -35 -42 -35 -49 0 -8 -11 -31 -25 -51 -14 -20 -25 -43 -25 -50 0
-7 -13 -33 -30 -57 -16 -24 -30 -51 -30 -60 0 -20 -59 -109 -77 -116 -7 -3
-13 -14 -13 -25 0 -11 -8 -37 -19 -57 -10 -20 -26 -52 -35 -71 -9 -19 -20 -42
-24 -50 -20 -35 -52 -98 -75 -146 -14 -28 -30 -55 -36 -58 -6 -4 -11 -15 -11
-24 0 -10 -11 -34 -25 -54 -14 -20 -25 -42 -25 -48 0 -19 -102 -183 -131 -210
-14 -14 -30 -37 -34 -50 -4 -14 -16 -37 -26 -52 -11 -14 -19 -29 -19 -33 0 -4
-7 -21 -14 -38 -8 -18 -22 -61 -31 -97 -9 -36 -20 -69 -25 -75 -4 -5 -11 -21
-15 -35 -4 -14 -16 -38 -27 -53 -11 -15 -24 -44 -30 -64 -6 -21 -21 -53 -34
-72 -13 -20 -24 -40 -24 -46 0 -5 -9 -21 -20 -35 -11 -14 -20 -32 -20 -40 0
-8 -6 -26 -14 -40 -8 -14 -27 -50 -44 -80 -16 -31 -34 -65 -40 -75 -30 -56
-50 -105 -61 -149 -7 -27 -20 -61 -30 -75 -10 -14 -22 -37 -26 -51 -4 -14 -18
-39 -31 -57 -13 -17 -24 -35 -24 -40 0 -4 -7 -21 -15 -37 -8 -16 -22 -56 -31
-89 -9 -34 -24 -73 -35 -88 -10 -15 -19 -33 -19 -39 0 -7 -9 -31 -19 -54 -11
-23 -32 -81 -47 -131 -15 -49 -35 -101 -44 -115 -10 -14 -21 -43 -24 -66 -4
-22 -14 -53 -22 -69 -8 -15 -21 -57 -29 -92 -8 -36 -23 -77 -34 -92 -31 -45
-53 -94 -67 -155 -8 -32 -23 -70 -33 -85 -10 -14 -22 -44 -25 -67 -4 -22 -14
-54 -23 -70 -8 -16 -22 -56 -29 -88 -8 -33 -19 -65 -25 -72 -6 -7 -17 -41 -25
-75 -8 -34 -23 -73 -33 -88 -10 -14 -24 -50 -31 -79 -6 -28 -16 -54 -20 -57
-5 -3 -16 -39 -25 -80 -10 -41 -21 -78 -26 -81 -5 -3 -9 -20 -9 -37 0 -30 -19
-114 -55 -237 -8 -30 -19 -80 -24 -110 -13 -79 -30 -148 -41 -168 -5 -9 -16
-51 -25 -92 -9 -41 -22 -88 -29 -105 -8 -16 -19 -61 -26 -100 -7 -38 -18 -83
-25 -100 -7 -16 -18 -61 -25 -100 -7 -38 -18 -83 -26 -99 -8 -16 -14 -49 -14
-73 0 -55 -28 -173 -46 -194 -8 -8 -14 -37 -14 -63 0 -50 -27 -175 -41 -190
-5 -6 -9 -32 -9 -58 0 -52 -27 -177 -41 -192 -5 -6 -9 -57 -9 -113 0 -99 -21
-225 -41 -247 -5 -6 -9 -63 -9 -128 0 -113 -20 -239 -41 -262 -5 -6 -9 -174
-9 -373 0 -304 -3 -375 -16 -431 -10 -37 -21 -73 -27 -80 -7 -9 -6 -20 1 -35
35 -69 42 -143 42 -449 0 -167 4 -308 9 -314 19 -21 41 -148 41 -242 0 -54 4
-102 9 -108 14 -15 41 -140 41 -190 0 -44 4 -51 49 -93 66 -63 103 -91 118
-91 22 0 106 -67 163 -131 108 -121 169 -179 187 -179 21 0 102 -55 117 -79
22 -36 123 -121 144 -121 14 0 72 -40 108 -75 11 -11 29 -27 40 -36 10 -9 32
-32 48 -52 15 -21 40 -40 55 -44 33 -8 82 -44 143 -106 26 -26 55 -47 64 -47
26 0 108 -60 132 -96 13 -20 33 -35 53 -39 45 -10 98 -51 139 -106 26 -35 43
-49 68 -54 40 -7 106 -51 123 -82 6 -12 26 -25 43 -29 37 -8 85 -43 145 -106
25 -27 51 -48 59 -48 12 0 69 -38 100 -67 7 -7 21 -13 30 -13 19 0 113 -64
124 -85 5 -7 22 -17 39 -20 40 -9 104 -53 120 -83 7 -12 24 -25 38 -29 28 -7
83 -44 118 -80 12 -13 29 -23 37 -23 22 0 92 -51 107 -77 6 -12 25 -25 42 -29
16 -3 45 -17 64 -30 20 -13 42 -24 50 -24 13 0 70 -38 101 -67 7 -7 20 -13 27
-13 8 0 31 -11 51 -25 20 -14 43 -25 50 -25 18 0 111 -67 117 -84 3 -8 20 -17
37 -21 18 -4 48 -18 67 -31 20 -13 42 -24 50 -24 17 0 77 -43 115 -82 14 -16
34 -28 43 -28 9 0 31 -11 49 -25 18 -14 38 -25 44 -25 6 0 28 -11 48 -25 20
-14 43 -25 51 -25 16 0 83 -47 96 -67 4 -7 15 -13 24 -13 9 0 30 -11 47 -24
17 -13 46 -27 65 -31 18 -4 49 -18 68 -31 20 -13 42 -24 49 -24 7 0 30 -11 50
-25 20 -14 43 -25 50 -25 8 0 33 -13 56 -30 22 -17 47 -30 54 -30 7 0 30 -11
50 -25 20 -14 43 -25 50 -25 7 0 30 -11 50 -25 20 -14 43 -25 50 -25 7 0 30
-11 50 -25 20 -14 43 -25 50 -25 8 0 33 -13 56 -30 22 -17 47 -30 55 -30 8 0
29 -11 47 -25 18 -14 40 -25 48 -25 9 0 21 -7 28 -15 7 -8 31 -20 54 -27 22
-7 56 -23 75 -35 19 -13 42 -23 52 -23 10 0 20 -4 24 -9 3 -5 20 -13 38 -17
17 -3 45 -17 62 -30 33 -25 89 -47 180 -72 33 -8 75 -26 94 -39 18 -13 40 -23
48 -23 8 0 29 -11 47 -25 18 -14 39 -25 46 -25 7 0 27 -8 44 -19 17 -10 55
-24 85 -31 30 -7 70 -23 89 -36 19 -13 41 -24 48 -24 7 0 30 -11 50 -25 20
-14 43 -25 51 -25 8 0 26 -9 39 -19 13 -10 48 -25 77 -31 28 -7 62 -21 75 -31
13 -10 37 -21 55 -25 17 -3 41 -12 52 -19 11 -7 74 -25 140 -40 66 -15 130
-36 143 -46 13 -10 37 -21 55 -24 18 -4 39 -13 47 -20 8 -7 44 -21 79 -30 35
-9 73 -22 85 -29 11 -8 46 -19 76 -26 30 -7 64 -19 75 -25 11 -7 45 -18 75
-25 30 -7 64 -19 75 -25 11 -7 45 -18 75 -25 30 -7 66 -21 80 -31 14 -9 50
-23 80 -29 30 -7 60 -16 65 -21 6 -4 42 -15 80 -25 39 -9 77 -22 85 -29 8 -7
40 -18 70 -25 30 -7 62 -18 70 -25 8 -7 41 -19 73 -26 32 -7 60 -16 63 -21 3
-4 19 -8 35 -8 38 0 158 -30 184 -46 11 -6 54 -19 95 -27 41 -9 112 -24 158
-33 46 -10 85 -21 88 -26 3 -4 19 -8 36 -8 31 0 138 -24 173 -39 11 -5 57 -17
103 -27 45 -9 87 -23 93 -31 6 -7 25 -13 41 -13 36 0 160 -30 172 -41 6 -5 32
-9 58 -9 52 0 177 -27 192 -41 6 -5 32 -9 58 -9 59 0 177 -28 199 -46 9 -8 38
-14 68 -14 54 0 179 -26 195 -41 6 -5 30 -9 53 -9 48 0 172 -28 187 -41 6 -5
57 -9 113 -9 99 0 225 -21 247 -41 6 -5 55 -9 110 -9 57 0 125 -7 156 -15 35
-9 102 -15 183 -15 122 0 247 -19 271 -41 6 -5 114 -9 240 -9 195 0 243 -3
305 -20 40 -10 78 -23 84 -29 15 -15 1969 -15 1984 0 6 6 44 19 84 29 61 16
110 20 280 20 113 0 209 4 215 9 24 22 149 41 271 41 81 0 148 6 183 15 30 8
91 15 136 15 44 0 84 4 90 9 15 13 139 41 187 41 23 0 47 4 53 9 16 15 141 41
197 41 29 0 57 4 63 9 11 10 135 41 166 41 l22 0 -22 16 c-13 9 -34 27 -47 40
-13 13 -31 24 -40 24 -15 0 -70 36 -103 68 -7 6 -21 12 -30 12 -18 0 -94 51
-130 87 -12 13 -29 23 -38 23 -22 0 -80 45 -139 107 -28 29 -57 53 -64 53 -18
0 -79 47 -132 102 -25 27 -52 48 -60 48 -18 0 -79 43 -133 94 -20 20 -49 39
-64 43 -30 7 -122 70 -122 83 0 8 -12 20 -98 100 -18 16 -40 30 -48 30 -17 0
-84 47 -98 69 -5 8 -23 28 -41 45 -76 71 -106 96 -120 96 -17 0 -105 60 -105
71 0 9 -151 162 -199 202 -18 15 -40 27 -48 27 -16 0 -83 48 -97 69 -5 8 -24
28 -43 45 -63 56 -227 223 -271 274 -28 33 -53 53 -74 57 -39 9 -107 57 -130
93 -10 15 -52 59 -94 97 -103 95 -265 257 -295 294 -13 17 -45 45 -70 62 -25
18 -56 48 -70 68 -13 20 -63 76 -111 124 -47 48 -94 104 -103 124 -16 34 -67
91 -216 243 -30 31 -64 63 -75 71 -11 8 -33 32 -49 54 -16 22 -44 55 -61 74
-18 18 -40 47 -48 65 -9 17 -75 89 -147 161 -145 143 -174 177 -184 216 -3 14
-26 41 -50 60 -45 36 -127 146 -140 189 -4 14 -40 57 -80 96 -83 82 -119 128
-130 164 -4 14 -36 53 -70 87 -34 34 -70 79 -80 100 -10 21 -29 49 -43 63 -39
39 -99 123 -107 149 -4 13 -22 44 -41 68 -18 24 -40 58 -49 76 -8 18 -41 59
-73 93 -31 33 -64 74 -72 90 -8 16 -33 50 -56 76 -23 26 -51 68 -63 93 -12 25
-25 45 -31 45 -12 0 -65 78 -75 110 -4 14 -38 70 -76 126 -37 55 -71 114 -75
129 -4 16 -24 51 -46 79 -21 28 -38 56 -38 63 0 6 -14 24 -30 40 -34 31 -90
113 -90 131 0 6 -11 28 -25 48 -14 20 -25 45 -25 55 0 10 -11 26 -25 35 -27
17 -85 100 -85 120 0 7 -11 30 -25 50 -14 20 -25 43 -25 50 0 7 -11 30 -25 50
-14 20 -25 43 -25 51 0 7 -18 36 -40 64 -22 28 -43 63 -47 77 -3 14 -17 41
-30 60 -12 19 -23 41 -23 48 0 8 -11 35 -25 61 -13 27 -27 55 -30 63 -3 8 -21
40 -40 70 -19 30 -43 71 -53 90 -10 19 -34 52 -54 74 -20 21 -42 52 -48 70 -7
17 -29 65 -51 106 -32 63 -118 236 -189 380 -10 19 -23 58 -29 85 -15 63 -41
126 -61 143 -13 12 -13 13 0 7 10 -4 9 -2 -2 8 -10 8 -18 20 -18 27 0 7 -7 10
-15 6 -12 -4 -13 -2 -2 16 9 16 9 22 -1 25 -6 3 -10 8 -8 11 2 4 -2 13 -10 20
-8 7 -14 8 -14 3 0 -5 -3 -17 -7 -27 -5 -13 -3 -15 7 -9 9 5 11 4 6 -4 -11
-17 -28 -2 -21 20 4 10 2 19 -4 19 -6 0 -8 7 -4 16 5 14 3 15 -15 5 -25 -13
-28 -5 -8 21 10 14 16 15 27 5 7 -7 5 -2 -5 10 -20 24 -39 22 -29 -2 7 -20
-21 -20 -40 0 -9 8 -37 22 -64 31 -26 8 -53 21 -58 27 -14 16 -46 36 -67 43
-10 4 -18 10 -18 15 0 5 -7 9 -15 9 -8 0 -15 4 -15 9 0 5 -10 13 -22 16 -11 4
-31 18 -43 31 -12 13 -32 24 -44 24 -11 0 -21 6 -21 13 0 12 -24 28 -62 43
-10 3 -18 10 -18 15 0 5 -9 9 -20 9 -11 0 -20 6 -20 14 0 7 -26 26 -57 42 -32
15 -63 33 -69 38 -6 6 -22 18 -34 26 -12 8 -28 21 -36 28 -7 6 -19 12 -27 12
-8 0 -17 9 -20 19 -3 11 -17 22 -36 26 -17 4 -31 10 -31 14 0 16 -41 50 -54
45 -8 -3 -19 3 -26 15 -6 12 -25 27 -43 35 -18 7 -47 29 -64 50 -18 20 -39 36
-48 36 -8 0 -15 7 -15 15 0 8 -16 22 -35 31 -19 9 -35 20 -35 25 0 5 -11 9
-25 9 -14 0 -25 5 -25 10 0 15 -50 60 -66 60 -8 0 -14 5 -14 10 0 12 -50 59
-63 60 -4 0 -26 17 -48 37 -22 20 -47 38 -56 39 -17 3 -33 22 -33 41 0 7 -16
20 -35 29 -19 9 -35 20 -35 25 0 5 -11 9 -25 9 -19 0 -25 5 -25 23 0 27 -32
57 -60 57 -15 0 -20 7 -20 25 0 18 -5 25 -20 25 -11 0 -23 7 -26 15 -4 8 -12
15 -20 15 -8 0 -14 4 -14 8 0 5 -18 21 -40 38 -22 16 -40 36 -40 44 0 14 -20
29 -60 45 -8 4 -30 29 -49 56 -18 27 -40 49 -48 49 -7 0 -43 29 -78 65 -36 36
-70 65 -75 65 -6 0 -10 4 -10 8 0 4 -65 74 -145 154 -135 136 -160 168 -135
168 6 0 10 5 10 11 0 7 -9 9 -21 6 -26 -7 -49 1 -49 18 0 7 -7 16 -16 19 -10
4 -14 14 -11 26 4 14 0 20 -11 20 -22 0 -182 169 -182 192 0 11 -8 18 -20 18
-11 0 -23 7 -26 15 -4 8 -12 15 -20 15 -8 0 -14 10 -14 25 0 13 -6 28 -13 32
-7 4 -17 19 -23 33 -6 14 -24 32 -40 40 -38 20 -50 31 -58 58 -4 12 -12 22
-17 22 -5 0 -9 7 -9 15 0 8 -6 15 -14 15 -8 0 -19 14 -25 30 -5 17 -15 30 -21
30 -6 0 -17 6 -23 13 -62 68 -62 68 -47 78 11 8 10 9 -7 4 -18 -5 -25 -1 -35
22 -7 15 -19 33 -26 38 -7 6 -13 15 -12 20 4 20 0 35 -11 35 -21 0 -69 53 -59
66 7 7 3 17 -10 29 -11 10 -20 13 -20 7 0 -7 5 -12 10 -12 6 0 10 -6 10 -12
-1 -14 -109 101 -110 115 0 5 -7 15 -15 24 -9 8 -13 23 -10 33 5 15 2 17 -15
13 -16 -4 -19 -2 -14 11 4 11 1 16 -10 16 -12 0 -16 11 -17 43 -1 23 -3 34 -6
25 -2 -10 -8 -18 -12 -18 -17 0 -41 43 -41 75 0 19 -4 35 -10 35 -5 0 -10 -4
-10 -10 0 -22 -19 -8 -29 21 -6 17 -19 33 -29 36 -10 2 -24 20 -31 40 -14 37
-44 73 -61 73 -10 0 -14 27 -10 63 1 17 -73 97 -90 97 -4 0 -11 8 -14 18 -3 9
-13 28 -21 42 -8 14 -15 42 -15 63 0 20 -4 37 -8 37 -5 0 -28 18 -52 40 -24
22 -49 40 -57 40 -7 0 -13 11 -13 24 0 14 -11 33 -25 44 -14 11 -25 23 -25 27
0 4 -10 20 -21 37 -17 23 -20 38 -15 69 4 24 2 39 -4 39 -5 0 -10 -7 -10 -15
0 -8 -7 -15 -15 -15 -8 0 -15 7 -15 15 0 8 -3 15 -8 15 -7 0 -25 30 -38 63 -3
9 -13 17 -20 17 -8 0 -14 10 -14 25 0 13 -6 28 -14 32 -8 4 -16 19 -18 33 -1
14 -13 29 -25 34 -11 6 -27 27 -33 47 -7 21 -18 40 -25 43 -8 3 -11 21 -7 55
4 47 3 51 -17 51 -11 0 -21 -6 -21 -12 0 -7 -5 -5 -11 5 -6 10 -8 25 -5 32 3
8 1 17 -4 20 -4 3 -10 -1 -13 -7 -3 -8 -9 -1 -16 15 -6 15 -15 27 -21 27 -5 0
-10 7 -10 15 0 17 -18 52 -37 73 -7 7 -13 17 -13 21 0 4 -9 19 -21 32 -14 16
-18 31 -14 49 4 18 3 21 -4 10 -14 -20 -22 -9 -28 39 -5 37 -3 41 16 41 14 0
21 6 21 20 0 13 -7 20 -20 20 -13 0 -20 -7 -20 -20 0 -38 -34 -23 -48 20 -12
40 -43 80 -62 80 -5 0 -10 18 -10 40 0 22 -3 40 -8 40 -7 0 -25 30 -38 63 -3
9 -13 17 -20 17 -8 0 -14 7 -14 15 0 8 -6 25 -12 36 -10 17 -10 23 0 26 6 3
12 14 11 26 l0 22 -11 -22 c-15 -31 -24 -29 -31 6 -3 16 -13 36 -22 44 -8 9
-15 25 -15 37 0 11 -7 23 -15 26 -8 4 -15 14 -15 24 0 9 -8 28 -18 41 -10 13
-36 58 -57 99 -21 41 -41 77 -45 80 -4 3 -13 26 -21 53 -7 26 -16 47 -20 47
-4 0 -12 14 -19 30 -7 17 -15 30 -19 30 -4 0 -13 21 -21 48 -7 26 -19 53 -26
59 -35 35 -53 80 -47 116 3 20 10 37 14 37 5 0 9 18 9 40 0 30 -4 40 -16 40
-13 0 -15 -7 -9 -40 5 -27 3 -40 -4 -40 -7 0 -9 -10 -5 -26 5 -19 3 -25 -4
-20 -6 4 -16 24 -22 45 -5 21 -18 47 -28 58 -13 15 -17 33 -14 62 2 23 8 41
13 41 5 0 9 18 9 40 0 34 -3 40 -21 40 -20 0 -21 -4 -16 -55 3 -31 2 -55 -4
-55 -5 0 -9 3 -10 8 0 4 -2 16 -3 27 -2 11 -15 37 -29 59 -15 21 -31 55 -37
75 -5 20 -21 52 -35 71 -14 19 -25 44 -25 56 0 13 -5 26 -10 29 -6 4 -17 21
-25 38 -9 18 -22 43 -29 57 -35 62 -41 83 -28 87 21 8 14 32 -8 26 -16 -4 -21
1 -26 26 -4 17 -13 31 -20 31 -9 0 -14 11 -14 28 0 16 -3 32 -7 35 -3 4 -7 18
-9 31 -3 25 -36 66 -54 66 -5 0 -10 11 -10 23 0 13 -3 27 -7 31 -4 4 -8 21 -9
38 -1 17 -9 35 -18 40 -9 5 -16 22 -16 39 0 17 -6 32 -14 35 -8 3 -18 19 -21
36 -4 16 -13 41 -21 56 -8 15 -14 35 -14 44 0 9 -4 20 -10 23 -14 9 -60 104
-60 125 0 10 -4 22 -10 25 -5 3 -10 15 -10 26 0 22 -29 26 -31 4z m-28 -112
c13 -16 12 -17 -3 -4 -10 7 -18 15 -18 17 0 8 8 3 21 -13z m2029 -3568 c0 -9
-6 -12 -15 -9 -8 4 -15 10 -15 15 0 5 7 9 15 9 8 0 15 -7 15 -15z m150 -240
c0 -9 -6 -12 -15 -9 -8 4 -15 10 -15 15 0 5 7 9 15 9 8 0 15 -7 15 -15z m3720
-3539 c0 -2 -8 -10 -17 -17 -16 -13 -17 -12 -4 4 13 16 21 21 21 13z"/>
<path d="M15290 21375 c0 -8 -4 -15 -9 -15 -13 0 -24 -55 -16 -80 6 -17 8 -18
21 -6 8 8 14 30 14 49 0 20 5 37 12 39 6 2 8 10 4 16 -10 17 -26 15 -26 -3z"/>
<path d="M15241 21344 c0 -11 3 -14 6 -6 3 7 2 16 -1 19 -3 4 -6 -2 -5 -13z"/>
<path d="M15397 21269 c4 -13 8 -18 11 -10 2 7 -1 18 -6 23 -8 8 -9 4 -5 -13z"/>
<path d="M15360 21207 c0 -14 -3 -39 -6 -56 -5 -24 -3 -31 10 -31 13 0 16 10
16 49 0 28 -4 53 -10 56 -6 3 -10 -4 -10 -18z"/>
<path d="M15440 21132 c0 -5 7 -13 16 -16 10 -4 14 -1 12 6 -5 15 -28 23 -28
10z"/>
<path d="M15480 21050 c0 -5 5 -10 10 -10 6 0 10 5 10 10 0 6 -4 10 -10 10 -5
0 -10 -4 -10 -10z"/>
<path d="M15521 20894 c0 -11 3 -14 6 -6 3 7 2 16 -1 19 -3 4 -6 -2 -5 -13z"/>
<path d="M15580 20600 c0 -33 3 -40 20 -40 17 0 20 7 20 40 0 33 -3 40 -20 40
-17 0 -20 -7 -20 -40z"/>
<path d="M15660 20440 c0 -22 5 -40 10 -40 6 0 10 18 10 40 0 22 -4 40 -10 40
-5 0 -10 -18 -10 -40z"/>
<path d="M37682 20460 c0 -14 2 -19 5 -12 2 6 2 18 0 25 -3 6 -5 1 -5 -13z"/>
<path d="M15792 20390 c0 -14 2 -19 5 -12 2 6 2 18 0 25 -3 6 -5 1 -5 -13z"/>
<path d="M15840 20250 c0 -5 7 -10 15 -10 8 0 15 -8 16 -17 0 -12 2 -13 6 -5
5 14 -14 42 -28 42 -5 0 -9 -4 -9 -10z"/>
<path d="M15920 20096 c0 -9 5 -16 10 -16 6 0 10 4 10 9 0 6 -4 13 -10 16 -5
3 -10 -1 -10 -9z"/>
<path d="M15960 20010 c0 -5 5 -10 11 -10 5 0 7 5 4 10 -3 6 -8 10 -11 10 -2
0 -4 -4 -4 -10z"/>
<path d="M15919 20008 c-1 -2 -2 -22 -3 -45 -1 -30 2 -43 11 -43 16 0 18 76 3
85 -5 3 -10 5 -11 3z"/>
<path d="M15994 19809 c3 -17 6 -35 6 -40 0 -5 5 -9 10 -9 6 0 10 18 10 40 0
30 -4 40 -16 40 -13 0 -15 -7 -10 -31z"/>
<path d="M37357 19740 c3 -11 7 -20 9 -20 2 0 4 9 4 20 0 11 -4 20 -9 20 -5 0
-7 -9 -4 -20z"/>
<path d="M16077 19691 c-7 -34 1 -91 13 -91 13 0 16 91 4 108 -9 12 -12 10
-17 -17z"/>
<path d="M16161 19584 c0 -11 3 -14 6 -6 3 7 2 16 -1 19 -3 4 -6 -2 -5 -13z"/>
<path d="M16140 19480 c0 -22 5 -40 10 -40 6 0 10 18 10 40 0 22 -4 40 -10 40
-5 0 -10 -18 -10 -40z"/>
<path d="M16255 19440 c3 -5 8 -10 11 -10 2 0 4 5 4 10 0 6 -5 10 -11 10 -5 0
-7 -4 -4 -10z"/>
<path d="M16271 19383 c-7 -8 -10 -17 -7 -20 9 -9 29 13 25 25 -2 6 -10 3 -18
-5z"/>
<path d="M16330 19290 c0 -5 5 -10 10 -10 6 0 10 5 10 10 0 6 -4 10 -10 10 -5
0 -10 -4 -10 -10z"/>
<path d="M16350 19215 c0 -8 7 -15 16 -15 14 0 14 3 4 15 -7 8 -14 15 -16 15
-2 0 -4 -7 -4 -15z"/>
<path d="M16401 19054 c0 -11 3 -14 6 -6 3 7 2 16 -1 19 -3 4 -6 -2 -5 -13z"/>
<path d="M16480 18895 c0 -8 7 -15 15 -15 8 0 15 4 15 9 0 5 -7 11 -15 15 -9
3 -15 0 -15 -9z"/>
<path d="M16557 18811 c-7 -34 1 -91 13 -91 13 0 16 91 4 108 -9 12 -12 10
-17 -17z"/>
<path d="M16680 18650 c0 -5 5 -10 10 -10 6 0 10 5 10 10 0 6 -4 10 -10 10 -5
0 -10 -4 -10 -10z"/>
<path d="M16720 18570 c0 -5 7 -10 16 -10 8 0 12 5 9 10 -3 6 -10 10 -16 10
-5 0 -9 -4 -9 -10z"/>
<path d="M16750 18495 c0 -8 7 -15 16 -15 14 0 14 3 4 15 -7 8 -14 15 -16 15
-2 0 -4 -7 -4 -15z"/>
<path d="M36556 18485 c-4 -15 -5 -30 -1 -33 3 -3 5 2 5 11 0 8 6 17 13 20 9
3 9 8 1 16 -9 10 -13 6 -18 -14z"/>
<path d="M36400 18235 c0 -8 2 -15 4 -15 2 0 6 7 10 15 3 8 1 15 -4 15 -6 0
-10 -7 -10 -15z"/>
<path d="M16960 18095 c0 -8 5 -15 10 -15 6 0 10 7 10 15 0 8 -4 15 -10 15 -5
0 -10 -7 -10 -15z"/>
<path d="M17037 18069 c4 -13 8 -18 11 -10 2 7 -1 18 -6 23 -8 8 -9 4 -5 -13z"/>
<path d="M17055 18010 c-3 -5 1 -10 9 -10 9 0 16 5 16 10 0 6 -4 10 -9 10 -6
0 -13 -4 -16 -10z"/>
<path d="M36180 17962 c-13 -14 -12 -15 2 -9 9 3 18 1 21 -6 2 -6 6 -3 10 7 4
9 3 15 -2 11 -5 -3 -11 -1 -13 4 -1 5 -10 2 -18 -7z"/>
<path d="M17220 17776 c0 -9 7 -16 16 -16 17 0 14 22 -4 28 -7 2 -12 -3 -12
-12z"/>
<path d="M17586 17283 c6 -4 14 -15 17 -23 5 -11 6 -9 4 4 -1 11 -9 21 -17 23
-10 3 -11 2 -4 -4z"/>
<path d="M17615 17210 c-3 -5 1 -10 9 -10 9 0 16 5 16 10 0 6 -4 10 -9 10 -6
0 -13 -4 -16 -10z"/>
<path d="M42076 17134 c-22 -8 -47 -21 -56 -29 -9 -8 -40 -19 -70 -26 -66 -14
-133 -42 -177 -75 -17 -13 -55 -29 -85 -35 -29 -7 -69 -20 -88 -30 -19 -11
-40 -19 -46 -19 -6 0 -23 -9 -37 -20 -13 -11 -49 -25 -78 -31 -30 -6 -74 -22
-99 -35 -25 -13 -54 -24 -65 -24 -11 0 -42 -11 -70 -25 -27 -13 -54 -25 -58
-25 -5 0 -21 -9 -36 -20 -15 -10 -60 -26 -99 -35 -40 -9 -74 -20 -77 -25 -3
-5 -31 -14 -63 -20 -31 -7 -75 -21 -96 -31 -22 -10 -87 -30 -145 -45 -58 -14
-116 -32 -128 -40 -12 -8 -46 -19 -75 -25 -29 -6 -63 -17 -74 -25 -26 -16
-143 -44 -184 -44 -16 0 -31 -4 -34 -9 -3 -5 -30 -15 -58 -22 -29 -7 -72 -22
-94 -34 -23 -12 -73 -28 -111 -35 -37 -6 -82 -18 -99 -26 -17 -7 -64 -19 -105
-25 -41 -7 -88 -18 -104 -25 -17 -7 -62 -18 -100 -25 -39 -6 -84 -18 -102 -25
-17 -8 -64 -21 -105 -30 -40 -9 -87 -22 -103 -29 -17 -8 -62 -19 -100 -25 -39
-7 -78 -16 -88 -21 -30 -16 -140 -39 -188 -39 -25 0 -81 -9 -124 -20 -43 -11
-104 -20 -135 -20 -31 0 -60 -4 -65 -9 -18 -18 -133 -41 -199 -41 -37 0 -98
-9 -139 -21 -42 -12 -108 -22 -159 -23 -48 -2 -93 -8 -100 -13 -28 -23 -138
-43 -240 -43 -57 0 -108 -4 -113 -9 -26 -25 -138 -41 -287 -41 -85 0 -158 -4
-163 -9 -29 -28 -137 -41 -337 -41 -112 0 -208 -4 -213 -9 -6 -5 -35 -17 -65
-27 -49 -16 -108 -19 -505 -24 -418 -5 -453 -7 -495 -25 -42 -19 -74 -20 -502
-23 -400 -3 -464 -1 -515 13 -32 10 -66 17 -75 18 -9 1 -14 5 -12 9 3 4 -36 8
-85 8 -54 0 -91 -4 -91 -10 0 -5 -9 -10 -19 -10 -11 0 -23 -4 -26 -10 -3 -5 0
-10 7 -10 13 0 -16 -20 -58 -39 -12 -5 -24 -17 -27 -25 -4 -9 -13 -16 -21 -16
-8 0 -29 -18 -47 -40 -18 -22 -41 -43 -53 -46 -24 -8 -76 -58 -76 -73 0 -6 -8
-11 -19 -11 -10 0 -21 -9 -24 -21 -3 -12 -13 -20 -24 -19 -34 4 -41 0 -63 -37
-15 -25 -24 -33 -29 -24 -6 9 -18 3 -46 -23 -21 -20 -46 -36 -55 -36 -10 0
-20 -9 -23 -19 -3 -11 -17 -22 -35 -26 -17 -3 -33 -13 -36 -21 -3 -8 -12 -14
-20 -14 -8 0 -18 -9 -21 -20 -3 -11 -13 -20 -22 -20 -8 0 -17 -9 -20 -20 -3
-11 -12 -20 -19 -20 -8 0 -38 -18 -67 -40 -29 -22 -61 -47 -72 -55 -10 -8 -25
-15 -32 -15 -7 0 -13 -4 -13 -10 0 -5 -6 -10 -14 -10 -8 0 -16 -7 -20 -15 -3
-8 -13 -15 -21 -15 -9 0 -22 -6 -29 -12 -8 -7 -24 -20 -36 -28 -12 -8 -28 -21
-36 -27 -7 -7 -16 -13 -20 -13 -4 0 -17 -11 -30 -25 -13 -14 -32 -25 -42 -25
-11 0 -22 -7 -26 -15 -3 -8 -15 -15 -26 -15 -11 0 -20 -4 -20 -10 0 -5 -7 -10
-15 -10 -8 0 -19 -9 -25 -20 -6 -11 -17 -20 -25 -20 -8 0 -15 -4 -15 -10 0 -5
-6 -10 -13 -10 -7 0 -20 -9 -30 -20 -9 -11 -28 -20 -42 -20 -14 0 -29 -8 -35
-20 -6 -11 -16 -20 -23 -20 -7 0 -23 -9 -37 -20 -14 -11 -31 -20 -38 -20 -7 0
-22 -9 -34 -20 -12 -11 -31 -20 -42 -20 -12 0 -34 -15 -50 -34 -15 -19 -40
-37 -55 -41 -14 -4 -34 -15 -44 -26 -10 -10 -29 -19 -43 -19 -17 0 -28 -7 -31
-20 -3 -11 -12 -20 -20 -20 -8 0 -21 -7 -30 -15 -8 -9 -28 -19 -44 -22 -16 -3
-29 -9 -29 -14 0 -5 -16 -9 -37 -9 -20 0 -33 -3 -30 -6 10 -10 -34 -45 -65
-51 -16 -3 -28 -9 -28 -14 0 -5 -14 -9 -31 -9 -17 0 -28 -4 -24 -10 3 -5 0
-10 -7 -10 -7 0 -19 -9 -26 -20 -7 -12 -23 -20 -40 -20 -15 0 -38 -7 -52 -15
-14 -8 -33 -18 -42 -21 -10 -3 -18 -13 -18 -20 0 -8 -9 -14 -20 -14 -11 0 -20
-4 -20 -10 0 -5 -9 -10 -20 -10 -11 0 -20 -7 -20 -15 0 -11 -11 -15 -39 -15
-31 0 -46 -7 -71 -32 -28 -28 -38 -31 -81 -29 -43 2 -49 0 -49 -19 0 -17 -6
-20 -40 -20 -33 0 -40 -3 -40 -20 0 -15 -7 -20 -29 -20 -17 0 -33 -4 -36 -10
-3 -5 -13 -10 -22 -10 -9 0 -27 -12 -40 -27 -19 -20 -27 -23 -33 -13 -6 10
-14 7 -33 -13 -13 -15 -30 -27 -37 -27 -19 0 -90 -33 -90 -41 0 -4 -18 -10
-40 -14 -22 -4 -40 -11 -40 -16 0 -5 -11 -9 -25 -9 -14 0 -25 -3 -25 -8 0 -4
-29 -18 -65 -30 -36 -13 -67 -28 -71 -33 -3 -5 -13 -9 -22 -9 -9 0 -44 -14
-77 -30 -33 -16 -72 -30 -87 -30 -16 0 -28 -4 -28 -10 0 -5 -17 -10 -39 -10
-30 0 -40 -4 -44 -20 -4 -15 -14 -20 -41 -20 -20 0 -36 -4 -36 -10 0 -5 -18
-10 -40 -10 -33 0 -40 -4 -40 -19 0 -15 -9 -20 -42 -24 -75 -10 -112 -20 -126
-34 -8 -8 -27 -17 -43 -20 -16 -3 -29 -9 -29 -14 0 -5 -18 -9 -40 -9 -22 0
-40 -4 -40 -10 0 -5 -18 -10 -40 -10 -22 0 -40 -4 -40 -8 0 -12 -46 -32 -71
-32 -10 0 -27 -4 -37 -9 -31 -15 -116 -39 -164 -46 -27 -4 -48 -11 -48 -16 0
-5 -18 -9 -40 -9 -22 0 -40 -4 -40 -10 0 -5 -18 -10 -40 -10 -28 0 -40 -4 -40
-14 0 -17 -51 -30 -78 -22 -11 4 -24 0 -32 -9 -7 -8 -21 -15 -31 -15 -11 0
-19 -4 -19 -10 0 -5 -15 -10 -33 -10 -18 0 -50 -9 -72 -20 -23 -12 -59 -20
-87 -20 -51 0 -128 -20 -128 -32 0 -5 -18 -8 -40 -8 -22 0 -40 -4 -40 -10 0
-5 -18 -10 -40 -10 -22 0 -40 -4 -40 -10 0 -6 -27 -10 -60 -10 -37 0 -60 -4
-60 -11 0 -6 -7 -8 -15 -5 -9 3 -18 -1 -21 -9 -5 -12 -25 -15 -85 -15 -46 0
-79 -4 -79 -10 0 -5 -18 -10 -40 -10 -22 0 -40 -4 -40 -10 0 -5 -18 -10 -40
-10 -22 0 -40 -3 -40 -7 0 -5 -34 -9 -77 -10 -42 -1 -79 -6 -82 -11 -3 -6 -41
-13 -83 -17 -43 -4 -78 -11 -78 -15 0 -5 -39 -11 -87 -14 -169 -12 -313 -29
-313 -38 0 -4 -30 -8 -67 -8 -38 0 -99 -5 -138 -11 -38 -5 -124 -14 -190 -19
-449 -35 -566 -44 -610 -43 -27 0 -192 -4 -365 -9 -215 -7 -353 -6 -435 1
-182 16 -692 43 -855 44 -80 1 -126 3 -102 5 23 2 42 6 42 10 0 9 -185 32
-260 32 -32 0 -68 7 -85 16 -22 13 -53 16 -122 15 -77 -2 -93 0 -93 13 0 10
-13 16 -42 18 -36 3 -43 6 -40 23 2 18 1 18 -11 -3 -7 -12 -15 -21 -18 -20 -3
2 3 -4 13 -14 10 -9 18 -21 18 -27 0 -7 6 -14 14 -17 8 -3 18 -20 21 -37 4
-18 18 -46 31 -63 12 -17 26 -44 30 -60 4 -15 22 -48 41 -72 18 -24 36 -54 39
-66 3 -13 18 -32 33 -43 15 -12 37 -43 50 -69 55 -114 88 -171 132 -227 22
-27 42 -60 45 -74 4 -14 26 -45 49 -68 23 -24 48 -58 55 -75 7 -17 26 -45 42
-62 32 -34 68 -99 68 -122 0 -7 6 -16 13 -19 19 -7 77 -97 77 -118 0 -10 29
-48 64 -84 36 -36 70 -80 77 -98 6 -17 34 -50 60 -72 52 -42 91 -94 104 -135
4 -14 31 -50 60 -80 63 -67 91 -107 101 -145 4 -15 42 -63 84 -107 43 -43 85
-94 94 -113 9 -18 51 -69 94 -112 88 -87 117 -126 128 -167 4 -16 24 -40 48
-57 22 -17 55 -47 71 -68 53 -66 124 -142 175 -186 44 -38 85 -92 95 -125 4
-14 82 -98 174 -188 91 -90 169 -166 173 -170 222 -231 309 -313 349 -332 38
-17 116 -85 262 -228 4 -4 33 -34 65 -68 31 -33 78 -71 103 -83 26 -12 80 -55
122 -95 42 -40 88 -77 103 -80 43 -11 97 -55 138 -112 50 -68 75 -89 116 -97
40 -9 90 -45 147 -108 24 -26 55 -50 70 -54 30 -7 113 -64 113 -77 0 -5 12
-14 28 -20 35 -16 94 -59 106 -77 20 -32 58 -59 91 -64 40 -7 109 -52 126 -83
6 -12 24 -25 41 -28 29 -6 96 -50 111 -74 15 -23 77 -82 87 -82 15 0 91 -57
107 -79 7 -11 28 -23 45 -27 33 -7 82 -39 124 -81 13 -13 32 -23 43 -23 11 0
22 -4 26 -9 3 -5 20 -13 38 -16 30 -7 111 -59 149 -98 10 -9 25 -17 33 -17 8
0 31 -11 51 -25 20 -14 43 -25 50 -25 20 0 91 -52 105 -77 6 -12 25 -25 42
-29 16 -3 45 -17 64 -30 20 -13 42 -24 50 -24 8 0 29 -11 47 -25 18 -14 40
-25 48 -25 8 0 26 -8 39 -19 13 -10 48 -24 78 -31 30 -7 70 -23 89 -36 19 -13
42 -24 51 -24 10 0 21 -4 26 -9 6 -5 39 -17 75 -26 58 -14 92 -27 152 -56 10
-5 29 -9 43 -9 34 0 157 -30 170 -41 5 -5 26 -9 47 -9 43 0 208 -38 223 -51
12 -12 418 -12 431 0 14 13 179 51 222 51 21 0 42 4 48 9 10 9 85 29 159 41
28 5 88 18 135 29 47 11 114 25 150 31 36 7 79 18 95 25 17 8 53 20 80 26 55
14 114 41 160 74 17 12 55 28 85 35 30 7 65 18 77 26 12 8 29 14 36 14 8 0 30
11 49 23 19 13 67 32 106 41 39 10 76 24 83 32 6 8 18 14 27 14 8 0 30 11 48
25 18 14 39 25 47 25 8 0 31 11 51 25 20 14 43 25 50 25 7 0 29 11 48 23 19
13 48 27 64 31 16 4 43 18 59 30 17 13 45 27 62 30 18 4 35 12 38 17 4 5 14 9
24 9 10 0 35 11 55 25 20 14 43 25 50 25 7 0 30 11 50 25 20 14 43 25 50 25 7
0 30 11 50 25 20 14 43 25 50 25 7 0 32 14 54 30 23 17 49 30 57 30 9 0 26 10
39 23 37 37 94 77 109 77 8 0 31 11 51 25 20 14 44 25 52 25 8 0 27 13 42 28
38 39 98 82 115 82 8 0 30 11 50 24 19 13 49 27 66 31 17 4 31 10 31 14 0 11
88 71 104 71 7 0 30 11 50 25 20 14 43 25 51 25 8 0 20 9 28 20 19 27 93 80
113 80 9 0 28 12 42 28 40 40 98 82 117 82 9 0 26 10 39 23 43 42 91 74 124
82 18 4 36 13 39 21 7 18 99 84 118 84 7 0 18 6 22 13 15 23 78 64 109 71 17
4 49 26 74 54 53 56 114 102 135 102 9 0 26 10 39 23 38 37 94 77 110 77 15 0
96 75 96 88 0 15 87 70 121 77 31 7 64 33 86 68 15 23 78 64 109 71 17 4 48
26 70 49 45 48 108 97 123 97 11 0 132 115 147 140 17 28 84 71 133 86 46 13
60 25 133 115 21 25 86 69 102 69 9 0 30 16 48 36 98 109 155 156 202 168 16
4 51 28 79 54 97 91 157 154 173 180 19 32 79 76 116 85 14 4 36 18 49 32 13
14 57 58 97 98 132 130 142 140 142 147 0 12 88 68 119 75 19 4 41 20 59 43
15 20 34 41 42 46 8 5 50 45 93 90 43 45 96 99 117 121 21 22 71 69 110 105
108 97 152 142 180 180 30 41 45 56 95 95 21 17 43 35 49 42 6 6 40 44 76 83
36 39 85 90 109 113 24 23 80 79 125 123 44 45 110 110 145 145 173 174 290
292 327 331 23 24 56 54 74 68 58 44 110 98 110 114 0 19 87 147 109 160 9 6
40 35 69 65 29 31 66 70 82 87 17 16 30 35 30 42 0 14 69 112 79 112 15 0 131
118 131 134 0 21 42 78 92 126 20 19 41 52 46 72 12 42 47 92 115 159 26 27
47 53 47 59 0 16 48 78 103 131 26 26 47 54 47 63 0 19 41 77 82 118 16 14 28
34 28 43 0 16 39 74 72 108 10 10 21 30 24 45 7 26 42 79 77 114 9 10 17 25
17 34 0 17 41 76 77 111 13 12 23 29 23 38 0 19 42 77 82 117 16 14 28 33 28
42 0 8 11 32 25 52 14 20 25 43 25 50 0 21 52 91 77 105 13 7 26 22 29 33 4
12 14 32 24 46 9 14 20 38 24 54 7 29 51 95 72 108 7 4 15 23 18 42 4 19 13
39 21 46 7 6 17 26 21 43 4 18 17 45 29 62 13 16 26 41 30 54 9 30 74 121 86
121 5 0 12 12 15 27 4 15 18 42 31 61 12 19 23 41 23 49 0 8 11 29 24 46 13
18 27 43 31 57 4 14 16 35 26 48 10 13 21 37 24 54 4 16 18 46 31 65 13 20 24
40 24 44 0 5 13 28 30 51 16 24 37 71 45 106 10 38 33 87 59 125 23 34 45 77
49 95 7 33 45 93 78 122 9 8 20 26 24 40 5 14 18 39 31 56 13 17 24 35 24 40
0 5 8 25 19 44 10 20 24 61 30 92 7 31 18 62 26 68 8 6 19 28 26 48 7 20 22
51 35 67 12 17 25 42 29 57 4 15 13 32 20 38 8 7 19 28 26 47 6 20 22 51 35
71 24 34 31 63 17 61 -5 0 -26 -7 -47 -15z m-7996 -1544 c0 -5 -4 -10 -10 -10
-5 0 -10 5 -10 10 0 6 5 10 10 10 6 0 10 -4 10 -10z m-3265 -1929 c3 -5 1 -12
-5 -16 -5 -3 -10 1 -10 9 0 18 6 21 15 7z m-147 -50 c10 -6 9 -10 -7 -14 -14
-3 -21 0 -21 9 0 16 9 18 28 5z m-961 -327 c-3 -3 -12 -4 -19 -1 -8 3 -5 6 6
6 11 1 17 -2 13 -5z m126 -1 c-7 -2 -19 -2 -25 0 -7 3 -2 5 12 5 14 0 19 -2
13 -5z m-363 -107 c0 -2 -7 -6 -15 -10 -8 -3 -15 -1 -15 4 0 6 7 10 15 10 8 0
15 -2 15 -4z m-5183 -328 c-3 -8 -6 -5 -6 6 -1 11 2 17 5 13 3 -3 4 -12 1 -19z
m3536 15 c-13 -2 -33 -2 -45 0 -13 2 -3 4 22 4 25 0 35 -2 23 -4z m-1308 -93
c-27 -5 -66 -8 -85 -8 -32 1 -31 2 10 8 25 4 63 7 85 7 38 0 37 0 -10 -7z
m-612 -57 c-13 -2 -33 -2 -45 0 -13 2 -3 4 22 4 25 0 35 -2 23 -4z m-160 -10
c-13 -2 -33 -2 -45 0 -13 2 -3 4 22 4 25 0 35 -2 23 -4z"/>
<path d="M17680 17130 c0 -5 5 -10 10 -10 6 0 10 5 10 10 0 6 -4 10 -10 10 -5
0 -10 -4 -10 -10z"/>
<path d="M17905 16790 c3 -5 8 -10 11 -10 2 0 4 5 4 10 0 6 -5 10 -11 10 -5 0
-7 -4 -4 -10z"/>
<path d="M18000 16705 c0 -8 5 -15 10 -15 6 0 10 7 10 15 0 8 -4 15 -10 15 -5
0 -10 -7 -10 -15z"/>
<path d="M18081 16574 c0 -11 3 -14 6 -6 3 7 2 16 -1 19 -3 4 -6 -2 -5 -13z"/>
<path d="M18140 16570 c0 -5 7 -10 16 -10 8 0 12 5 9 10 -3 6 -10 10 -16 10
-5 0 -9 -4 -9 -10z"/>
<path d="M18330 16373 c0 -9 37 -53 45 -53 10 0 4 10 -20 36 -14 15 -25 23
-25 17z"/>
<path d="M18481 16184 c0 -11 3 -14 6 -6 3 7 2 16 -1 19 -3 4 -6 -2 -5 -13z"/>
<path d="M18700 15926 c0 -2 7 -7 16 -10 8 -3 12 -2 9 4 -6 10 -25 14 -25 6z"/>
<path d="M33900 15580 c0 -5 5 -10 11 -10 5 0 7 5 4 10 -3 6 -8 10 -11 10 -2
0 -4 -4 -4 -10z"/>
<path d="M19108 15523 c7 -3 16 -2 19 1 4 3 -2 6 -13 5 -11 0 -14 -3 -6 -6z"/>
<path d="M19593 15076 c4 -10 7 -22 7 -27 0 -5 7 -9 15 -9 20 0 19 6 -7 32
-17 17 -20 18 -15 4z"/>
<path d="M20458 14483 c7 -3 16 -2 19 1 4 3 -2 6 -13 5 -11 0 -14 -3 -6 -6z"/>
<path d="M32045 14330 c-3 -5 3 -10 14 -10 12 0 21 5 21 10 0 6 -6 10 -14 10
-8 0 -18 -4 -21 -10z"/>
<path d="M20892 14186 c1 -14 5 -23 9 -20 7 4 0 44 -7 44 -2 0 -3 -11 -2 -24z"/>
<path d="M20916 14202 c-7 -12 6 -27 34 -42 19 -10 22 -10 13 0 -6 7 -9 18 -7
25 3 7 1 16 -5 20 -7 4 -8 0 -4 -11 4 -12 2 -15 -8 -12 -8 3 -13 11 -11 17 2
13 -5 15 -12 3z"/>
<path d="M29288 13273 c7 -3 16 -2 19 1 4 3 -2 6 -13 5 -11 0 -14 -3 -6 -6z"/>
<path d="M29085 13211 c-6 -6 -37 -12 -70 -14 -53 -3 -50 -3 23 -5 67 -2 82 1
82 13 0 17 -21 20 -35 6z"/>
<path d="M28258 13043 c12 -2 32 -2 45 0 12 2 2 4 -23 4 -25 0 -35 -2 -22 -4z"/>
<path d="M24170 13021 c0 -6 4 -13 10 -16 6 -3 7 1 4 9 -7 18 -14 21 -14 7z"/>
<path d="M24196 13017 c3 -10 9 -15 12 -12 3 3 0 11 -7 18 -10 9 -11 8 -5 -6z"/>
<path d="M24187 12976 c-12 -29 1 -32 26 -6 12 13 15 18 5 11 -13 -9 -17 -9
-20 1 -3 7 -7 5 -11 -6z"/>
</g>
</svg>
